Maniac-Grunged.ufo
<glyph name="exclam" format="2">
  <advance width="289"/>
  <unicode hex="0021"/>
  <outline>
    <contour>
      <point x="23" y="278" type="line"/>
      <point x="101" y="277"/>
      <point x="179" y="277"/>
      <point x="257" y="278" type="curve"/>
      <point x="257" y="697" type="line"/>
      <point x="23" y="697" type="line"/>
    </contour>
    <contour>
      <point x="23" y="234" type="curve"/>
      <point x="24" y="157"/>
      <point x="18" y="80"/>
      <point x="25" y="3" type="curve"/>
      <point x="28" y="3"/>
      <point x="34" y="1"/>
      <point x="37" y="1" type="curve"/>
      <point x="110" y="-2"/>
      <point x="183" y="-1"/>
      <point x="256" y="2" type="curve"/>
      <point x="260" y="79"/>
      <point x="257" y="157"/>
      <point x="257" y="234" type="curve"/>
      <point x="179" y="235"/>
      <point x="101" y="235"/>
    </contour>
  </outline>
</glyph>
<glyph name="parenleft" format="2">
  <advance width="289"/>
  <unicode hex="0028"/>
  <outline>
    <contour>
      <point x="23" y="-265" type="line"/>
      <point x="193" y="-266"/>
      <point x="363" y="-266"/>
      <point x="534" y="-265" type="curve"/>
      <point x="535" y="-190"/>
      <point x="535" y="-114"/>
      <point x="534" y="-38" type="curve"/>
      <point x="442" y="-37"/>
      <point x="349" y="-39"/>
      <point x="257" y="-38" type="curve"/>
      <point x="257" y="751" type="line"/>
      <point x="349" y="752"/>
      <point x="442" y="750"/>
      <point x="534" y="751" type="curve"/>
      <point x="535" y="829"/>
      <point x="535" y="907"/>
      <point x="534" y="985" type="curve"/>
      <point x="23" y="985" type="line"/>
    </contour>
    <contour>
      <point x="224" y="897" type="line"/>
      <point x="224" y="894" type="line"/>
      <point x="222" y="894" type="line"/>
      <point x="222" y="897" type="line"/>
    </contour>
    <contour>
      <point x="292" y="891" type="line"/>
      <point x="292" y="888" type="line"/>
      <point x="289" y="888" type="line"/>
      <point x="289" y="891" type="line"/>
    </contour>
    <contour>
      <point x="342" y="872" type="line"/>
      <point x="342" y="870" type="line"/>
      <point x="339" y="870" type="line"/>
      <point x="339" y="872" type="line"/>
    </contour>
    <contour>
      <point x="126" y="866" type="line"/>
      <point x="126" y="863" type="line"/>
      <point x="123" y="863" type="line"/>
      <point x="123" y="866" type="line"/>
    </contour>
    <contour>
      <point x="274" y="860" type="line"/>
      <point x="274" y="857" type="line"/>
      <point x="271" y="857" type="line"/>
      <point x="271" y="860" type="line"/>
    </contour>
    <contour>
      <point x="259" y="848" type="curve"/>
      <point x="268" y="851"/>
      <point x="271" y="849"/>
      <point x="268" y="840" type="curve"/>
      <point x="260" y="837"/>
      <point x="257" y="839"/>
    </contour>
    <contour>
      <point x="292" y="848" type="line"/>
      <point x="292" y="845" type="line"/>
      <point x="289" y="845" type="line"/>
      <point x="289" y="848" type="line"/>
    </contour>
    <contour>
      <point x="132" y="829" type="line"/>
      <point x="132" y="826" type="line"/>
      <point x="129" y="826" type="line"/>
      <point x="129" y="829" type="line"/>
    </contour>
    <contour>
      <point x="169" y="829" type="line"/>
      <point x="169" y="826" type="line" name=".hr01"/>
      <point x="166" y="826" type="line"/>
      <point x="166" y="829" type="line"/>
    </contour>
    <contour>
      <point x="201" y="829" type="line"/>
      <point x="203" y="825" type="line"/>
      <point x="201" y="820" type="line"/>
      <point x="196" y="820" type="line"/>
      <point x="193" y="825" type="line"/>
      <point x="196" y="829" type="line"/>
    </contour>
    <contour>
      <point x="120" y="823" type="line"/>
      <point x="120" y="820" type="line"/>
      <point x="117" y="820" type="line"/>
      <point x="117" y="823" type="line"/>
    </contour>
    <contour>
      <point x="181" y="823" type="line"/>
      <point x="181" y="820" type="line"/>
      <point x="179" y="820" type="line"/>
      <point x="179" y="823" type="line"/>
    </contour>
    <contour>
      <point x="168" y="810" type="curve" smooth="yes"/>
      <point x="176" y="817"/>
      <point x="187" y="803"/>
      <point x="180" y="796" type="curve"/>
      <point x="172" y="791"/>
      <point x="161" y="803" name=".hr02"/>
    </contour>
    <contour>
      <point x="188" y="811" type="line"/>
      <point x="188" y="808" type="line"/>
      <point x="185" y="808" type="line"/>
      <point x="185" y="811" type="line"/>
    </contour>
    <contour>
      <point x="138" y="761" type="line"/>
      <point x="138" y="759" type="line"/>
      <point x="135" y="759" type="line"/>
      <point x="135" y="761" type="line"/>
    </contour>
    <contour>
      <point x="157" y="761" type="line"/>
      <point x="157" y="759" type="line"/>
      <point x="154" y="759" type="line"/>
      <point x="154" y="761" type="line"/>
    </contour>
    <contour>
      <point x="144" y="731" type="line"/>
      <point x="144" y="728" type="line"/>
      <point x="142" y="728" type="line"/>
      <point x="142" y="731" type="line"/>
    </contour>
    <contour>
      <point x="144" y="718" type="line"/>
      <point x="144" y="716" type="line"/>
      <point x="142" y="716" type="line"/>
      <point x="142" y="718" type="line"/>
    </contour>
    <contour>
      <point x="120" y="681" type="line"/>
      <point x="120" y="679" type="line"/>
      <point x="117" y="679" type="line"/>
      <point x="117" y="681" type="line"/>
    </contour>
    <contour>
      <point x="163" y="669" type="line"/>
      <point x="163" y="666" type="line"/>
      <point x="160" y="666" type="line"/>
      <point x="160" y="669" type="line"/>
    </contour>
    <contour>
      <point x="144" y="663" type="line"/>
      <point x="144" y="660" type="line"/>
      <point x="142" y="660" type="line"/>
      <point x="142" y="663" type="line"/>
    </contour>
    <contour>
      <point x="132" y="614" type="line"/>
      <point x="132" y="611" type="line"/>
      <point x="129" y="611" type="line"/>
      <point x="129" y="614" type="line"/>
    </contour>
    <contour>
      <point x="114" y="589" type="line"/>
      <point x="114" y="586" type="line"/>
      <point x="111" y="586" type="line"/>
      <point x="111" y="589" type="line"/>
    </contour>
    <contour>
      <point x="116" y="461" type="curve"/>
      <point x="124" y="456"/>
      <point x="124" y="452"/>
      <point x="116" y="448" type="curve"/>
      <point x="108" y="452"/>
      <point x="108" y="456"/>
    </contour>
    <contour>
      <point x="163" y="453" type="line"/>
      <point x="163" y="451" type="line"/>
      <point x="160" y="451" type="line"/>
      <point x="160" y="453" type="line"/>
    </contour>
    <contour>
      <point x="151" y="404" type="line"/>
      <point x="151" y="401" type="line"/>
      <point x="148" y="401" type="line"/>
      <point x="148" y="404" type="line"/>
    </contour>
    <contour>
      <point x="114" y="392" type="line"/>
      <point x="114" y="389" type="line"/>
      <point x="111" y="389" type="line"/>
      <point x="111" y="392" type="line"/>
    </contour>
    <contour>
      <point x="157" y="380" type="line"/>
      <point x="157" y="377" type="line"/>
      <point x="154" y="377" type="line"/>
      <point x="154" y="380" type="line"/>
    </contour>
    <contour>
      <point x="132" y="324" type="line"/>
      <point x="132" y="321" type="line"/>
      <point x="129" y="321" type="line"/>
      <point x="129" y="324" type="line"/>
    </contour>
    <contour>
      <point x="126" y="312" type="line"/>
      <point x="126" y="309" type="line"/>
      <point x="123" y="309" type="line"/>
      <point x="123" y="312" type="line"/>
    </contour>
    <contour>
      <point x="120" y="213" type="line"/>
      <point x="120" y="210" type="line"/>
      <point x="117" y="210" type="line"/>
      <point x="117" y="213" type="line"/>
    </contour>
    <contour>
      <point x="132" y="102" type="line"/>
      <point x="132" y="99" type="line"/>
      <point x="129" y="99" type="line"/>
      <point x="129" y="102" type="line"/>
    </contour>
    <contour>
      <point x="157" y="-52" type="line"/>
      <point x="157" y="-55" type="line"/>
      <point x="154" y="-55" type="line"/>
      <point x="154" y="-52" type="line"/>
    </contour>
    <contour>
      <point x="114" y="-76" type="line"/>
      <point x="114" y="-79" type="line"/>
      <point x="111" y="-79" type="line"/>
      <point x="111" y="-76" type="line"/>
    </contour>
    <contour>
      <point x="175" y="-83" type="line"/>
      <point x="175" y="-85" type="line"/>
      <point x="172" y="-85" type="line"/>
      <point x="172" y="-83" type="line"/>
    </contour>
    <contour>
      <point x="157" y="-95" type="line"/>
      <point x="157" y="-98" type="line"/>
      <point x="154" y="-98" type="line"/>
      <point x="154" y="-95" type="line"/>
    </contour>
    <contour>
      <point x="194" y="-101" type="line"/>
      <point x="194" y="-104" type="line"/>
      <point x="191" y="-104" type="line"/>
      <point x="191" y="-101" type="line"/>
    </contour>
    <contour>
      <point x="163" y="-107" type="line"/>
      <point x="163" y="-110" type="line"/>
      <point x="160" y="-110" type="line"/>
      <point x="160" y="-107" type="line"/>
    </contour>
    <contour>
      <point x="202" y="-108" type="curve"/>
      <point x="211" y="-105"/>
      <point x="214" y="-108"/>
      <point x="211" y="-117" type="curve"/>
      <point x="203" y="-120"/>
      <point x="200" y="-117"/>
    </contour>
    <contour>
      <point x="138" y="-119" type="line"/>
      <point x="138" y="-122" type="line"/>
      <point x="135" y="-122" type="line"/>
      <point x="135" y="-119" type="line"/>
    </contour>
    <contour>
      <point x="222" y="-127" type="curve"/>
      <point x="226" y="-120" name=".hr03"/>
      <point x="239" y="-128"/>
      <point x="234" y="-135" type="curve" smooth="yes"/>
      <point x="229" y="-143"/>
      <point x="215" y="-135"/>
    </contour>
    <contour>
      <point x="249" y="-132" type="line"/>
      <point x="249" y="-135" type="line"/>
      <point x="246" y="-135" type="line"/>
      <point x="246" y="-132" type="line"/>
    </contour>
    <contour>
      <point x="151" y="-138" type="line"/>
      <point x="151" y="-141" type="line"/>
      <point x="148" y="-141" type="line"/>
      <point x="148" y="-138" type="line"/>
    </contour>
    <contour>
      <point x="206" y="-144" type="line"/>
      <point x="206" y="-147" type="line"/>
      <point x="203" y="-147" type="line"/>
      <point x="203" y="-144" type="line"/>
    </contour>
    <contour>
      <point x="311" y="-144" type="line"/>
      <point x="311" y="-147" type="line"/>
      <point x="308" y="-147" type="line"/>
      <point x="308" y="-144" type="line"/>
    </contour>
    <contour>
      <point x="348" y="-150" type="line"/>
      <point x="348" y="-153" type="line"/>
      <point x="345" y="-153" type="line"/>
      <point x="345" y="-150" type="line"/>
    </contour>
    <contour>
      <point x="194" y="-156" type="line"/>
      <point x="194" y="-159" type="line"/>
      <point x="191" y="-159" type="line"/>
      <point x="191" y="-156" type="line"/>
    </contour>
    <contour>
      <point x="268" y="-156" type="line"/>
      <point x="268" y="-159" type="line"/>
      <point x="265" y="-159" type="line"/>
      <point x="265" y="-156" type="line"/>
    </contour>
    <contour>
      <point x="268" y="-169" type="line"/>
      <point x="268" y="-172" type="line"/>
      <point x="265" y="-172" type="line"/>
      <point x="265" y="-169" type="line"/>
    </contour>
  </outline>
</glyph>
<glyph name="parenright" format="2">
  <advance width="280"/>
  <unicode hex="0029"/>
  <outline>
    <contour>
      <point x="-260" y="975" type="curve"/>
      <point x="-261" y="896"/>
      <point x="-260" y="821"/>
      <point x="-260" y="742" type="curve"/>
      <point x="-167" y="741"/>
      <point x="-75" y="742"/>
      <point x="17" y="741" type="curve"/>
      <point x="17" y="477"/>
      <point x="18" y="217"/>
      <point x="17" y="-47" type="curve"/>
      <point x="-75" y="-48"/>
      <point x="-167" y="-46"/>
      <point x="-260" y="-47" type="curve"/>
      <point x="-261" y="-126"/>
      <point x="-260" y="-202"/>
      <point x="-260" y="-281" type="curve"/>
      <point x="-89" y="-281"/>
      <point x="79" y="-283"/>
      <point x="250" y="-280" type="curve"/>
      <point x="254" y="-212"/>
      <point x="251" y="-146"/>
      <point x="251" y="-78" type="curve"/>
      <point x="252" y="242"/>
      <point x="251" y="556"/>
      <point x="252" y="877" type="curve"/>
      <point x="252" y="909"/>
      <point x="251" y="942"/>
      <point x="250" y="974" type="curve"/>
      <point x="79" y="978"/>
      <point x="-89" y="975"/>
    </contour>
    <contour>
      <point x="28" y="888" type="line"/>
      <point x="28" y="885" type="line"/>
      <point x="25" y="885" type="line"/>
      <point x="25" y="888" type="line"/>
    </contour>
    <contour>
      <point x="104" y="885" type="line"/>
      <point x="108" y="883" type="line"/>
      <point x="108" y="877" type="line"/>
      <point x="104" y="875" type="line"/>
      <point x="99" y="877" type="line"/>
      <point x="99" y="883" type="line"/>
    </contour>
    <contour>
      <point x="164" y="863" type="line"/>
      <point x="164" y="860" type="line"/>
      <point x="161" y="860" type="line"/>
      <point x="161" y="863" type="line"/>
    </contour>
    <contour>
      <point x="-46" y="857" type="line"/>
      <point x="-46" y="854" type="line"/>
      <point x="-49" y="854" type="line"/>
      <point x="-49" y="857" type="line"/>
    </contour>
    <contour>
      <point x="65" y="857" type="line"/>
      <point x="65" y="854" type="line"/>
      <point x="62" y="854" type="line"/>
      <point x="62" y="857" type="line" name=".hr01"/>
    </contour>
    <contour>
      <point x="-101" y="851" type="line"/>
      <point x="-101" y="848" type="line"/>
      <point x="-104" y="848" type="line"/>
      <point x="-104" y="851" type="line"/>
    </contour>
    <contour>
      <point x="53" y="851" type="line"/>
      <point x="53" y="848" type="line"/>
      <point x="50" y="848" type="line"/>
      <point x="50" y="851" type="line"/>
    </contour>
    <contour>
      <point x="-34" y="844" type="line"/>
      <point x="-34" y="842" type="line"/>
      <point x="-36" y="842" type="line"/>
      <point x="-36" y="844" type="line"/>
    </contour>
    <contour>
      <point x="40" y="838" type="line"/>
      <point x="40" y="835" type="line"/>
      <point x="37" y="835" type="line"/>
      <point x="37" y="838" type="line"/>
    </contour>
    <contour>
      <point x="49" y="833" type="curve"/>
      <point x="58" y="836"/>
      <point x="61" y="833"/>
      <point x="58" y="824" type="curve"/>
      <point x="49" y="821"/>
      <point x="46" y="824"/>
    </contour>
    <contour>
      <point x="74" y="832" type="curve"/>
      <point x="82" y="839"/>
      <point x="91" y="824"/>
      <point x="83" y="819" type="curve" smooth="yes"/>
      <point x="74" y="812"/>
      <point x="66" y="827"/>
    </contour>
    <contour>
      <point x="108" y="820" type="line"/>
      <point x="108" y="817" type="line"/>
      <point x="105" y="817" type="line"/>
      <point x="105" y="820" type="line"/>
    </contour>
    <contour>
      <point x="65" y="814" type="line"/>
      <point x="65" y="811" type="line"/>
      <point x="62" y="811" type="line"/>
      <point x="62" y="814" type="line"/>
    </contour>
    <contour>
      <point x="102" y="808" type="line"/>
      <point x="102" y="805" type="line"/>
      <point x="99" y="805" type="line"/>
      <point x="99" y="808" type="line"/>
    </contour>
    <contour>
      <point x="117" y="794" type="curve"/>
      <point x="125" y="797"/>
      <point x="128" y="794"/>
      <point x="126" y="785" type="curve"/>
      <point x="117" y="783"/>
      <point x="114" y="786"/>
    </contour>
    <contour>
      <point x="145" y="789" type="line"/>
      <point x="145" y="786" type="line"/>
      <point x="142" y="786" type="line"/>
      <point x="142" y="789" type="line"/>
    </contour>
    <contour>
      <point x="102" y="764" type="line"/>
      <point x="102" y="762" type="line"/>
      <point x="99" y="762" type="line"/>
      <point x="99" y="764" type="line"/>
    </contour>
    <contour>
      <point x="114" y="764" type="line"/>
      <point x="114" y="762" type="line"/>
      <point x="111" y="762" type="line"/>
      <point x="111" y="764" type="line"/>
    </contour>
    <contour>
      <point x="126" y="765" type="curve" smooth="yes"/>
      <point x="131" y="772"/>
      <point x="144" y="765"/>
      <point x="139" y="757" type="curve" smooth="yes"/>
      <point x="134" y="750"/>
      <point x="121" y="758"/>
    </contour>
    <contour>
      <point x="108" y="734" type="line"/>
      <point x="108" y="731" type="line"/>
      <point x="105" y="731" type="line"/>
      <point x="105" y="734" type="line"/>
    </contour>
    <contour>
      <point x="114" y="709" type="line"/>
      <point x="114" y="706" type="line"/>
      <point x="111" y="706" type="line"/>
      <point x="111" y="709" type="line"/>
    </contour>
    <contour>
      <point x="108" y="690" type="line"/>
      <point x="108" y="688" type="line"/>
      <point x="105" y="688" type="line"/>
      <point x="105" y="690" type="line"/>
    </contour>
    <contour>
      <point x="151" y="684" type="line"/>
      <point x="151" y="681" type="line"/>
      <point x="148" y="681" type="line"/>
      <point x="148" y="684" type="line"/>
    </contour>
    <contour>
      <point x="164" y="660" type="line"/>
      <point x="164" y="657" type="line"/>
      <point x="161" y="657" type="line"/>
      <point x="161" y="660" type="line"/>
    </contour>
    <contour>
      <point x="133" y="617" type="line"/>
      <point x="133" y="614" type="line"/>
      <point x="130" y="614" type="line"/>
      <point x="130" y="617" type="line"/>
    </contour>
    <contour>
      <point x="133" y="604" type="line"/>
      <point x="133" y="601" type="line"/>
      <point x="130" y="601" type="line"/>
      <point x="130" y="604" type="line"/>
    </contour>
    <contour>
      <point x="127" y="567" type="line"/>
      <point x="127" y="564" type="line"/>
      <point x="124" y="564" type="line"/>
      <point x="124" y="567" type="line"/>
    </contour>
    <contour>
      <point x="157" y="561" type="line"/>
      <point x="157" y="558" type="line"/>
      <point x="155" y="558" type="line"/>
      <point x="155" y="561" type="line"/>
    </contour>
    <contour>
      <point x="120" y="549" type="line"/>
      <point x="120" y="546" type="line"/>
      <point x="118" y="546" type="line"/>
      <point x="118" y="549" type="line"/>
    </contour>
    <contour>
      <point x="151" y="530" type="line"/>
      <point x="151" y="527" type="line"/>
      <point x="148" y="527" type="line"/>
      <point x="148" y="530" type="line"/>
    </contour>
    <contour>
      <point x="108" y="456" type="line"/>
      <point x="108" y="454" type="line"/>
      <point x="105" y="454" type="line"/>
      <point x="105" y="456" type="line"/>
    </contour>
    <contour>
      <point x="114" y="419" type="line"/>
      <point x="114" y="417" type="line"/>
      <point x="111" y="417" type="line"/>
      <point x="111" y="419" type="line"/>
    </contour>
    <contour>
      <point x="128" y="419" type="line"/>
      <point x="130" y="415" type="line"/>
      <point x="128" y="410" type="line"/>
      <point x="123" y="410" type="line"/>
      <point x="120" y="415" type="line"/>
      <point x="123" y="419" type="line"/>
    </contour>
    <contour>
      <point x="125" y="377" type="curve"/>
      <point x="134" y="380"/>
      <point x="136" y="377"/>
      <point x="133" y="368" type="curve"/>
      <point x="124" y="365"/>
      <point x="122" y="368"/>
    </contour>
    <contour>
      <point x="120" y="309" type="line"/>
      <point x="120" y="306" type="line"/>
      <point x="118" y="306" type="line"/>
      <point x="118" y="309" type="line"/>
    </contour>
    <contour>
      <point x="157" y="284" type="line"/>
      <point x="157" y="281" type="line"/>
      <point x="155" y="281" type="line"/>
      <point x="155" y="284" type="line"/>
    </contour>
    <contour>
      <point x="139" y="235" type="line"/>
      <point x="139" y="232" type="line"/>
      <point x="136" y="232" type="line"/>
      <point x="136" y="235" type="line"/>
    </contour>
    <contour>
      <point x="139" y="210" type="line"/>
      <point x="139" y="207" type="line"/>
      <point x="136" y="207" type="line"/>
      <point x="136" y="210" type="line"/>
    </contour>
    <contour>
      <point x="145" y="99" type="line"/>
      <point x="145" y="96" type="line"/>
      <point x="142" y="96" type="line"/>
      <point x="142" y="99" type="line"/>
    </contour>
    <contour>
      <point x="133" y="68" type="line"/>
      <point x="133" y="65" type="line"/>
      <point x="130" y="65" type="line"/>
      <point x="130" y="68" type="line"/>
    </contour>
    <contour>
      <point x="157" y="50" type="line"/>
      <point x="157" y="47" type="line"/>
      <point x="155" y="47" type="line"/>
      <point x="155" y="50" type="line"/>
    </contour>
    <contour>
      <point x="127" y="-30" type="line"/>
      <point x="127" y="-33" type="line"/>
      <point x="124" y="-33" type="line"/>
      <point x="124" y="-30" type="line"/>
    </contour>
    <contour>
      <point x="108" y="-61" type="line"/>
      <point x="108" y="-64" type="line"/>
      <point x="105" y="-64" type="line"/>
      <point x="105" y="-61" type="line"/>
    </contour>
    <contour>
      <point x="133" y="-104" type="line"/>
      <point x="133" y="-107" type="line"/>
      <point x="130" y="-107" type="line"/>
      <point x="130" y="-104" type="line"/>
    </contour>
    <contour>
      <point x="49" y="-129" type="line"/>
      <point x="54" y="-128"/>
      <point x="66" y="-131"/>
      <point x="62" y="-138" type="curve"/>
      <point x="57" y="-143"/>
      <point x="35" y="-144"/>
      <point x="41" y="-132" type="curve"/>
    </contour>
    <contour>
      <point x="85" y="-129" type="line"/>
      <point x="87" y="-133" type="line"/>
      <point x="85" y="-138" type="line"/>
      <point x="79" y="-138" type="line"/>
      <point x="77" y="-133" type="line"/>
      <point x="79" y="-129" type="line"/>
    </contour>
    <contour>
      <point x="139" y="-129" type="line"/>
      <point x="139" y="-132" type="line"/>
      <point x="136" y="-132" type="line"/>
      <point x="136" y="-129" type="line"/>
    </contour>
    <contour>
      <point x="127" y="-135" type="line"/>
      <point x="127" y="-138" type="line"/>
      <point x="124" y="-138" type="line"/>
      <point x="124" y="-135" type="line"/>
    </contour>
    <contour>
      <point x="-3" y="-141" type="line"/>
      <point x="-3" y="-144" type="line"/>
      <point x="-6" y="-144" type="line"/>
      <point x="-6" y="-141" type="line"/>
    </contour>
    <contour>
      <point x="-58" y="-147" type="line"/>
      <point x="-58" y="-150" type="line"/>
      <point x="-61" y="-150" type="line"/>
      <point x="-61" y="-147" type="line"/>
    </contour>
    <contour>
      <point x="-83" y="-154" type="line"/>
      <point x="-83" y="-156" type="line"/>
      <point x="-86" y="-156" type="line"/>
      <point x="-86" y="-154" type="line"/>
    </contour>
    <contour>
      <point x="34" y="-154" type="line"/>
      <point x="34" y="-156" type="line"/>
      <point x="31" y="-156" type="line"/>
      <point x="31" y="-154" type="line"/>
    </contour>
    <contour>
      <point x="71" y="-154" type="line" name=".hr02"/>
      <point x="71" y="-156" type="line"/>
      <point x="68" y="-156" type="line"/>
      <point x="68" y="-154" type="line"/>
    </contour>
    <contour>
      <point x="157" y="-154" type="line"/>
      <point x="157" y="-156" type="line"/>
      <point x="155" y="-156" type="line"/>
      <point x="155" y="-154" type="line"/>
    </contour>
    <contour>
      <point x="59" y="-160" type="line"/>
      <point x="59" y="-163" type="line"/>
      <point x="56" y="-163" type="line"/>
      <point x="56" y="-160" type="line"/>
    </contour>
    <contour>
      <point x="10" y="-184" type="line"/>
      <point x="10" y="-187" type="line"/>
      <point x="7" y="-187" type="line"/>
      <point x="7" y="-184" type="line"/>
    </contour>
    <contour>
      <point x="77" y="-184" type="line"/>
      <point x="77" y="-187" type="line"/>
      <point x="74" y="-187" type="line"/>
      <point x="74" y="-184" type="line"/>
    </contour>
  </outline>
</glyph>
<glyph name="comma" format="2">
  <advance width="289"/>
  <unicode hex="002C"/>
  <outline>
    <contour>
      <point x="23" y="234" type="curve"/>
      <point x="22" y="157"/>
      <point x="21" y="79"/>
      <point x="24" y="2" type="curve"/>
      <point x="55" y="-1"/>
      <point x="83" y="0"/>
      <point x="114" y="-1" type="curve"/>
      <point x="114" y="-12"/>
      <point x="116" y="-32"/>
      <point x="116" y="-43" type="curve"/>
      <point x="163" y="-43"/>
      <point x="209" y="-44"/>
      <point x="256" y="-43" type="curve"/>
      <point x="259" y="50"/>
      <point x="257" y="142"/>
      <point x="257" y="234" type="curve"/>
      <point x="179" y="235"/>
      <point x="101" y="235"/>
    </contour>
  </outline>
</glyph>
<glyph name="hyphen" format="2">
  <advance width="398"/>
  <unicode hex="002D"/>
  <outline>
    <contour>
      <point x="22" y="425" type="line"/>
      <point x="21" y="347" name=".hr01"/>
      <point x="21" y="269"/>
      <point x="22" y="191" type="curve" name=".hr02"/>
      <point x="366" y="191" type="line"/>
      <point x="367" y="269" name=".hr03"/>
      <point x="367" y="347"/>
      <point x="366" y="425" type="curve" name=".hr04"/>
    </contour>
  </outline>
</glyph>
<glyph name="one" format="2">
  <advance width="287"/>
  <unicode hex="0031"/>
  <outline>
    <contour>
      <point x="23" y="-5" type="line"/>
      <point x="102" y="-5"/>
      <point x="178" y="-7"/>
      <point x="255" y="-4" type="curve"/>
      <point x="259" y="45"/>
      <point x="257" y="94"/>
      <point x="257" y="143" type="curve" smooth="yes"/>
      <point x="257" y="330"/>
      <point x="258" y="512"/>
      <point x="257" y="697" type="curve"/>
      <point x="179" y="698"/>
      <point x="101" y="698"/>
      <point x="23" y="697" type="curve"/>
    </contour>
    <contour>
      <point x="157" y="462" type="line"/>
      <point x="157" y="459" type="line"/>
      <point x="154" y="459" type="line"/>
      <point x="154" y="462" type="line"/>
    </contour>
    <contour>
      <point x="132" y="425" type="line"/>
      <point x="132" y="422" type="line"/>
      <point x="129" y="422" type="line"/>
      <point x="129" y="425" type="line"/>
    </contour>
    <contour>
      <point x="163" y="419" type="line"/>
      <point x="163" y="416" type="line"/>
      <point x="160" y="416" type="line"/>
      <point x="160" y="419" type="line"/>
    </contour>
    <contour>
      <point x="138" y="314" type="line"/>
      <point x="138" y="311" type="line"/>
      <point x="136" y="311" type="line"/>
      <point x="136" y="314" type="line"/>
    </contour>
    <contour>
      <point x="151" y="252" type="line"/>
      <point x="151" y="249" type="line"/>
      <point x="148" y="249" type="line"/>
      <point x="148" y="252" type="line"/>
    </contour>
    <contour>
      <point x="157" y="215" type="line"/>
      <point x="157" y="212" type="line"/>
      <point x="154" y="212" type="line"/>
      <point x="154" y="215" type="line"/>
    </contour>
    <contour>
      <point x="169" y="215" type="line"/>
      <point x="169" y="212" type="line"/>
      <point x="166" y="212" type="line"/>
      <point x="166" y="215" type="line"/>
    </contour>
  </outline>
</glyph>
<glyph name="two" format="2">
  <advance width="569"/>
  <unicode hex="0032"/>
  <outline>
    <contour>
      <point x="29" y="695" type="line" name=".hr03"/>
      <point x="28" y="617"/>
      <point x="28" y="539"/>
      <point x="29" y="461" type="curve"/>
      <point x="121" y="460"/>
      <point x="213" y="462"/>
      <point x="306" y="461" type="curve"/>
      <point x="306" y="418" type="line"/>
      <point x="213" y="417"/>
      <point x="121" y="418"/>
      <point x="29" y="417" type="curve"/>
      <point x="28" y="278"/>
      <point x="28" y="138"/>
      <point x="29" y="-1" type="curve"/>
      <point x="200" y="-1"/>
      <point x="367" y="-3"/>
      <point x="538" y="0" type="curve" name=".hr01"/>
      <point x="543" y="79"/>
      <point x="539" y="155"/>
      <point x="540" y="232" type="curve" name=".hr02"/>
      <point x="447" y="235"/>
      <point x="355" y="232"/>
      <point x="263" y="233" type="curve"/>
      <point x="263" y="282" type="line"/>
      <point x="355" y="283"/>
      <point x="447" y="281"/>
      <point x="540" y="282" type="curve"/>
      <point x="540" y="695" type="line"/>
    </contour>
    <contour>
      <point x="267" y="601" type="line"/>
      <point x="267" y="598" type="line"/>
      <point x="264" y="598" type="line"/>
      <point x="264" y="601" type="line"/>
    </contour>
    <contour>
      <point x="193" y="595" type="line"/>
      <point x="193" y="592" type="line"/>
      <point x="190" y="592" type="line" name=".hr04"/>
      <point x="190" y="595" type="line"/>
    </contour>
    <contour>
      <point x="255" y="595" type="line"/>
      <point x="255" y="592" type="line"/>
      <point x="252" y="592" type="line"/>
      <point x="252" y="595" type="line"/>
    </contour>
    <contour>
      <point x="396" y="588" type="line"/>
      <point x="396" y="586" type="line"/>
      <point x="394" y="586" type="line"/>
      <point x="394" y="588" type="line"/>
    </contour>
    <contour>
      <point x="218" y="576" type="line"/>
      <point x="218" y="573" type="line"/>
      <point x="215" y="573" type="line"/>
      <point x="215" y="576" type="line"/>
    </contour>
    <contour>
      <point x="273" y="564" type="line"/>
      <point x="273" y="561" type="line"/>
      <point x="270" y="561" type="line"/>
      <point x="270" y="564" type="line"/>
    </contour>
    <contour>
      <point x="347" y="558" type="line"/>
      <point x="347" y="555" type="line"/>
      <point x="344" y="555" type="line"/>
      <point x="344" y="558" type="line"/>
    </contour>
    <contour>
      <point x="360" y="558" type="line"/>
      <point x="360" y="555" type="line"/>
      <point x="357" y="555" type="line"/>
      <point x="357" y="558" type="line"/>
    </contour>
    <contour>
      <point x="393" y="545" type="curve"/>
      <point x="402" y="545"/>
      <point x="400" y="530"/>
      <point x="391" y="530" type="curve"/>
      <point x="382" y="531"/>
      <point x="384" y="546"/>
    </contour>
    <contour>
      <point x="409" y="545" type="line"/>
      <point x="409" y="542" type="line"/>
      <point x="406" y="542" type="line"/>
      <point x="406" y="545" type="line"/>
    </contour>
    <contour>
      <point x="383" y="514" type="curve"/>
      <point x="391" y="518"/>
      <point x="409" y="513"/>
      <point x="409" y="502" type="curve"/>
      <point x="400" y="497"/>
      <point x="382" y="503"/>
    </contour>
    <contour>
      <point x="421" y="484" type="line"/>
      <point x="421" y="481" type="line"/>
      <point x="418" y="481" type="line"/>
      <point x="418" y="484" type="line"/>
    </contour>
    <contour>
      <point x="415" y="434" type="line"/>
      <point x="415" y="432" type="line"/>
      <point x="412" y="432" type="line"/>
      <point x="412" y="434" type="line"/>
    </contour>
    <contour>
      <point x="150" y="250" type="line" name=".hr05"/>
      <point x="150" y="247" type="line"/>
      <point x="147" y="247" type="line"/>
      <point x="147" y="250" type="line"/>
    </contour>
    <contour>
      <point x="162" y="200" type="line"/>
      <point x="162" y="197" type="line"/>
      <point x="160" y="197" type="line"/>
      <point x="160" y="200" type="line"/>
    </contour>
    <contour>
      <point x="187" y="188" type="line"/>
      <point x="187" y="185" type="line"/>
      <point x="184" y="185" type="line"/>
      <point x="184" y="188" type="line"/>
    </contour>
    <contour>
      <point x="159" y="183" type="curve"/>
      <point x="167" y="185"/>
      <point x="170" y="182" name=".hr06"/>
      <point x="168" y="174" type="curve"/>
      <point x="159" y="171"/>
      <point x="156" y="174"/>
    </contour>
    <contour>
      <point x="138" y="176" type="line"/>
      <point x="138" y="173" type="line"/>
      <point x="135" y="173" type="line"/>
      <point x="135" y="176" type="line"/>
    </contour>
    <contour>
      <point x="157" y="163" type="line"/>
      <point x="160" y="159" type="line"/>
      <point x="157" y="154" type="line"/>
      <point x="152" y="154" type="line"/>
      <point x="150" y="159" type="line"/>
      <point x="152" y="163" type="line"/>
    </contour>
    <contour>
      <point x="244" y="145" type="line"/>
      <point x="246" y="140" type="line" name=".hr07"/>
      <point x="244" y="136" type="line"/>
      <point x="239" y="136" type="line" name=".hr08"/>
      <point x="236" y="140" type="line"/>
      <point x="239" y="145" type="line"/>
    </contour>
    <contour>
      <point x="298" y="145" type="line"/>
      <point x="298" y="142" type="line"/>
      <point x="295" y="142" type="line"/>
      <point x="295" y="145" type="line"/>
    </contour>
    <contour>
      <point x="197" y="131" type="curve"/>
      <point x="202" y="136"/>
      <point x="216" y="127"/>
      <point x="211" y="119" type="curve"/>
      <point x="204" y="112"/>
      <point x="192" y="123"/>
    </contour>
    <contour>
      <point x="298" y="126" type="line"/>
      <point x="298" y="124" type="line"/>
      <point x="295" y="124" type="line"/>
      <point x="295" y="126" type="line"/>
    </contour>
    <contour>
      <point x="372" y="126" type="line"/>
      <point x="372" y="124" type="line"/>
      <point x="369" y="124" type="line"/>
      <point x="369" y="126" type="line"/>
    </contour>
    <contour>
      <point x="372" y="114" type="line"/>
      <point x="372" y="111" type="line"/>
      <point x="369" y="111" type="line"/>
      <point x="369" y="114" type="line"/>
    </contour>
    <contour>
      <point x="316" y="96" type="line"/>
      <point x="316" y="93" type="line"/>
      <point x="314" y="93" type="line"/>
      <point x="314" y="96" type="line"/>
    </contour>
  </outline>
</glyph>
<glyph name="three" format="2">
  <advance width="569"/>
  <unicode hex="0033"/>
  <outline>
    <contour>
      <point x="29" y="694" type="line"/>
      <point x="28" y="616"/>
      <point x="28" y="538"/>
      <point x="29" y="460" type="curve"/>
      <point x="121" y="459"/>
      <point x="214" y="461"/>
      <point x="306" y="460" type="curve"/>
      <point x="306" y="417" type="line"/>
      <point x="214" y="416"/>
      <point x="121" y="418"/>
      <point x="29" y="417" type="curve"/>
      <point x="28" y="372"/>
      <point x="28" y="327"/>
      <point x="29" y="282" type="curve"/>
      <point x="121" y="279"/>
      <point x="214" y="282"/>
      <point x="306" y="281" type="curve"/>
      <point x="306" y="232" type="line"/>
      <point x="214" y="231"/>
      <point x="121" y="233"/>
      <point x="29" y="232" type="curve"/>
      <point x="28" y="154" name=".hr01"/>
      <point x="28" y="76"/>
      <point x="29" y="-2" type="curve"/>
      <point x="200" y="-1"/>
      <point x="368" y="-4"/>
      <point x="539" y="-1" type="curve"/>
      <point x="542" y="46"/>
      <point x="541" y="93"/>
      <point x="540" y="140" type="curve"/>
      <point x="540" y="325"/>
      <point x="541" y="507"/>
      <point x="540" y="694" type="curve"/>
    </contour>
    <contour>
      <point x="355" y="598" type="line"/>
      <point x="360" y="595" type="line"/>
      <point x="360" y="590" type="line"/>
      <point x="355" y="587" type="line"/>
      <point x="351" y="590" type="line"/>
      <point x="351" y="595" type="line"/>
    </contour>
    <contour>
      <point x="415" y="594" type="line"/>
      <point x="415" y="591" type="line"/>
      <point x="412" y="591" type="line"/>
      <point x="412" y="594" type="line"/>
    </contour>
    <contour>
      <point x="243" y="575" type="line"/>
      <point x="243" y="573" type="line" name=".hr02"/>
      <point x="240" y="573" type="line"/>
      <point x="240" y="575" type="line"/>
    </contour>
    <contour>
      <point x="335" y="575" type="line"/>
      <point x="335" y="573" type="line"/>
      <point x="332" y="573" type="line"/>
      <point x="332" y="575" type="line"/>
    </contour>
    <contour>
      <point x="287" y="569" type="line"/>
      <point x="289" y="565" type="line"/>
      <point x="287" y="560" type="line"/>
      <point x="282" y="560" type="line"/>
      <point x="279" y="565" type="line"/>
      <point x="282" y="569" type="line"/>
    </contour>
    <contour>
      <point x="331" y="567" type="line"/>
      <point x="335" y="564" type="line"/>
      <point x="335" y="559" type="line"/>
      <point x="331" y="557" type="line"/>
      <point x="326" y="559" type="line"/>
      <point x="326" y="564" type="line"/>
    </contour>
    <contour>
      <point x="280" y="551" type="line"/>
      <point x="280" y="548" type="line"/>
      <point x="277" y="548" type="line"/>
      <point x="277" y="551" type="line"/>
    </contour>
    <contour>
      <point x="335" y="551" type="line"/>
      <point x="335" y="548" type="line"/>
      <point x="332" y="548" type="line"/>
      <point x="332" y="551" type="line"/>
    </contour>
    <contour>
      <point x="381" y="545" type="curve"/>
      <point x="389" y="548"/>
      <point x="392" y="545"/>
      <point x="390" y="537" type="curve"/>
      <point x="381" y="534"/>
      <point x="378" y="536"/>
    </contour>
    <contour>
      <point x="409" y="538" type="line"/>
      <point x="409" y="536" type="line"/>
      <point x="406" y="536" type="line"/>
      <point x="406" y="538" type="line"/>
    </contour>
    <contour>
      <point x="391" y="526" type="line"/>
      <point x="391" y="523" type="line"/>
      <point x="388" y="523" type="line"/>
      <point x="388" y="526" type="line"/>
    </contour>
    <contour>
      <point x="434" y="520" type="line"/>
      <point x="434" y="517" type="line"/>
      <point x="431" y="517" type="line"/>
      <point x="431" y="520" type="line" name=".hr03"/>
    </contour>
    <contour>
      <point x="421" y="514" type="line"/>
      <point x="421" y="511" type="line"/>
      <point x="419" y="511" type="line"/>
      <point x="419" y="514" type="line"/>
    </contour>
    <contour>
      <point x="391" y="501" type="line"/>
      <point x="391" y="499" type="line"/>
      <point x="388" y="499" type="line"/>
      <point x="388" y="501" type="line"/>
    </contour>
    <contour>
      <point x="428" y="471" type="line"/>
      <point x="428" y="468" type="line"/>
      <point x="425" y="468" type="line"/>
      <point x="425" y="471" type="line"/>
    </contour>
    <contour>
      <point x="409" y="409" type="line"/>
      <point x="409" y="406" type="line" name=".hr04"/>
      <point x="406" y="406" type="line"/>
      <point x="406" y="409" type="line"/>
    </contour>
    <contour>
      <point x="403" y="372" type="line"/>
      <point x="403" y="369" type="line"/>
      <point x="400" y="369" type="line"/>
      <point x="400" y="372" type="line"/>
    </contour>
    <contour>
      <point x="409" y="243" type="line"/>
      <point x="409" y="240" type="line"/>
      <point x="406" y="240" type="line"/>
      <point x="406" y="243" type="line"/>
    </contour>
    <contour>
      <point x="412" y="207" type="curve"/>
      <point x="421" y="202"/>
      <point x="420" y="198" name=".hr05"/>
      <point x="411" y="194" type="curve"/>
      <point x="402" y="199"/>
      <point x="403" y="203"/>
    </contour>
    <contour>
      <point x="409" y="187" type="line"/>
      <point x="409" y="184" type="line"/>
      <point x="406" y="184" type="line" name=".hr06"/>
      <point x="406" y="187" type="line"/>
    </contour>
    <contour>
      <point x="378" y="163" type="line"/>
      <point x="378" y="160" type="line"/>
      <point x="375" y="160" type="line"/>
      <point x="375" y="163" type="line"/>
    </contour>
    <contour>
      <point x="440" y="156" type="line" name=".hr07"/>
      <point x="440" y="154" type="line"/>
      <point x="437" y="154" type="line"/>
      <point x="437" y="156" type="line" name=".hr08"/>
    </contour>
    <contour>
      <point x="360" y="144" type="line"/>
      <point x="360" y="141" type="line"/>
      <point x="357" y="141" type="line"/>
      <point x="357" y="144" type="line"/>
    </contour>
    <contour>
      <point x="409" y="144" type="line"/>
      <point x="409" y="141" type="line"/>
      <point x="406" y="141" type="line" name=".hr09"/>
      <point x="406" y="144" type="line"/>
    </contour>
    <contour>
      <point x="452" y="144" type="line"/>
      <point x="452" y="141" type="line"/>
      <point x="449" y="141" type="line"/>
      <point x="449" y="144" type="line"/>
    </contour>
    <contour>
      <point x="387" y="137" type="curve" name=".hr10"/>
      <point x="396" y="140"/>
      <point x="399" y="137" name=".hr11"/>
      <point x="396" y="128" type="curve"/>
      <point x="387" y="126"/>
      <point x="384" y="129"/>
    </contour>
    <contour>
      <point x="354" y="132" type="line"/>
      <point x="354" y="129" type="line"/>
      <point x="351" y="129" type="line"/>
      <point x="351" y="132" type="line" name=".hr12"/>
    </contour>
    <contour>
      <point x="347" y="107" type="line"/>
      <point x="347" y="104" type="line"/>
      <point x="345" y="104" type="line"/>
      <point x="345" y="107" type="line"/>
    </contour>
    <contour>
      <point x="317" y="95" type="line"/>
      <point x="317" y="92" type="line"/>
      <point x="314" y="92" type="line"/>
      <point x="314" y="95" type="line"/>
    </contour>
  </outline>
</glyph>
<glyph name="four" format="2">
  <advance width="569"/>
  <unicode hex="0034"/>
  <outline>
    <contour>
      <point x="26" y="237" type="line"/>
      <point x="122" y="236"/>
      <point x="214" y="238"/>
      <point x="309" y="237" type="curve"/>
      <point x="310" y="158" name=".hr01"/>
      <point x="309" y="82" name=".hr02"/>
      <point x="310" y="3" type="curve" name=".hr03"/>
      <point x="385" y="2"/>
      <point x="461" y="2"/>
      <point x="537" y="3" type="curve"/>
      <point x="538" y="235"/>
      <point x="538" y="467"/>
      <point x="537" y="699" type="curve"/>
      <point x="461" y="700"/>
      <point x="386" y="699"/>
      <point x="310" y="699" type="curve"/>
      <point x="309" y="606" name=".hr04"/>
      <point x="310" y="514" name=".hr05"/>
      <point x="309" y="422" type="curve" name=".hr06"/>
      <point x="260" y="422" type="line"/>
      <point x="259" y="514"/>
      <point x="261" y="606"/>
      <point x="260" y="699" type="curve"/>
      <point x="181" y="700"/>
      <point x="105" y="699"/>
      <point x="26" y="699" type="curve"/>
    </contour>
    <contour>
      <point x="160" y="537" type="line" name=".hr07"/>
      <point x="160" y="534" type="line"/>
      <point x="157" y="534" type="line"/>
      <point x="157" y="537" type="line"/>
    </contour>
    <contour>
      <point x="419" y="506" type="line" name=".hr08"/>
      <point x="419" y="503" type="line"/>
      <point x="416" y="503" type="line"/>
      <point x="416" y="506" type="line"/>
    </contour>
    <contour>
      <point x="425" y="488" type="line"/>
      <point x="425" y="485" type="line"/>
      <point x="422" y="485" type="line"/>
      <point x="422" y="488" type="line"/>
    </contour>
    <contour>
      <point x="431" y="457" type="line"/>
      <point x="431" y="454" type="line"/>
      <point x="428" y="454" type="line"/>
      <point x="428" y="457" type="line"/>
    </contour>
    <contour>
      <point x="172" y="439" type="line"/>
      <point x="172" y="436" type="line"/>
      <point x="169" y="436" type="line"/>
      <point x="169" y="439" type="line"/>
    </contour>
    <contour>
      <point x="413" y="352" type="line"/>
      <point x="413" y="349" type="line"/>
      <point x="410" y="349" type="line"/>
      <point x="410" y="352" type="line"/>
    </contour>
    <contour>
      <point x="178" y="346" type="line"/>
      <point x="178" y="343" type="line"/>
      <point x="176" y="343" type="line"/>
      <point x="176" y="346" type="line"/>
    </contour>
    <contour>
      <point x="382" y="334" type="line"/>
      <point x="382" y="331" type="line"/>
      <point x="379" y="331" type="line"/>
      <point x="379" y="334" type="line"/>
    </contour>
    <contour>
      <point x="340" y="331" type="line"/>
      <point x="345" y="329" type="line"/>
      <point x="345" y="324" type="line"/>
      <point x="340" y="321" type="line"/>
      <point x="336" y="324" type="line"/>
      <point x="336" y="329" type="line"/>
    </contour>
    <contour>
      <point x="401" y="328" type="line"/>
      <point x="404" y="323" type="line" name=".hr09"/>
      <point x="401" y="319" type="line"/>
      <point x="396" y="319" type="line"/>
      <point x="394" y="323" type="line"/>
      <point x="396" y="328" type="line"/>
    </contour>
    <contour>
      <point x="377" y="319" type="line"/>
      <point x="382" y="316" type="line" name=".hr10"/>
      <point x="382" y="311" type="line"/>
      <point x="377" y="309" type="line"/>
      <point x="373" y="311" type="line"/>
      <point x="373" y="316" type="line"/>
    </contour>
    <contour>
      <point x="369" y="303" type="line"/>
      <point x="369" y="300" type="line"/>
      <point x="367" y="300" type="line"/>
      <point x="367" y="303" type="line"/>
    </contour>
    <contour>
      <point x="394" y="285" type="line" name=".hr11"/>
      <point x="394" y="282" type="line"/>
      <point x="391" y="282" type="line"/>
      <point x="391" y="285" type="line"/>
    </contour>
    <contour>
      <point x="406" y="278" type="line"/>
      <point x="406" y="276" type="line"/>
      <point x="404" y="276" type="line"/>
      <point x="404" y="278" type="line"/>
    </contour>
    <contour>
      <point x="394" y="272" type="line"/>
      <point x="394" y="269" type="line"/>
      <point x="391" y="269" type="line"/>
      <point x="391" y="272" type="line"/>
    </contour>
    <contour>
      <point x="419" y="223" type="line"/>
      <point x="419" y="220" type="line"/>
      <point x="416" y="220" type="line"/>
      <point x="416" y="223" type="line"/>
    </contour>
    <contour>
      <point x="400" y="167" type="line"/>
      <point x="400" y="165" type="line"/>
      <point x="397" y="165" type="line"/>
      <point x="397" y="167" type="line"/>
    </contour>
    <contour>
      <point x="406" y="124" type="line"/>
      <point x="406" y="122" type="line"/>
      <point x="404" y="122" type="line"/>
      <point x="404" y="124" type="line"/>
    </contour>
  </outline>
</glyph>
<glyph name="five" format="2">
  <advance width="569"/>
  <unicode hex="0035"/>
  <outline>
    <contour>
      <point x="30" y="693" type="curve"/>
      <point x="29" y="556"/>
      <point x="29" y="419"/>
      <point x="30" y="281" type="curve"/>
      <point x="122" y="278"/>
      <point x="212" y="283"/>
      <point x="304" y="280" type="curve"/>
      <point x="326" y="275"/>
      <point x="302" y="243"/>
      <point x="313" y="232" type="curve"/>
      <point x="218" y="231"/>
      <point x="125" y="234"/>
      <point x="30" y="231" type="curve"/>
      <point x="29" y="154"/>
      <point x="28" y="76"/>
      <point x="31" y="-1" type="curve"/>
      <point x="119" y="-6"/>
      <point x="206" y="-1"/>
      <point x="294" y="-2" type="curve"/>
      <point x="379" y="-1"/>
      <point x="463" y="-6"/>
      <point x="547" y="1" type="curve"/>
      <point x="540" y="36"/>
      <point x="540" y="73"/>
      <point x="540" y="109" type="curve"/>
      <point x="541" y="211" name=".hr01"/>
      <point x="541" y="313"/>
      <point x="540" y="416" type="curve" name=".hr02"/>
      <point x="448" y="417"/>
      <point x="356" y="416"/>
      <point x="264" y="416" type="curve"/>
      <point x="264" y="460" type="line"/>
      <point x="356" y="460"/>
      <point x="448" y="459"/>
      <point x="541" y="460" type="curve" name=".hr03"/>
      <point x="541" y="693" type="line"/>
      <point x="370" y="694"/>
      <point x="200" y="694"/>
    </contour>
    <contour>
      <point x="317" y="600" type="line"/>
      <point x="317" y="597" type="line"/>
      <point x="314" y="597" type="line"/>
      <point x="314" y="600" type="line"/>
    </contour>
    <contour>
      <point x="367" y="600" type="line"/>
      <point x="367" y="597" type="line"/>
      <point x="364" y="597" type="line"/>
      <point x="364" y="600" type="line"/>
    </contour>
    <contour>
      <point x="323" y="581" type="line"/>
      <point x="323" y="578" type="line"/>
      <point x="321" y="578" type="line"/>
      <point x="321" y="581" type="line" name=".hr04"/>
    </contour>
    <contour>
      <point x="410" y="581" type="line"/>
      <point x="410" y="578" type="line"/>
      <point x="407" y="578" type="line"/>
      <point x="407" y="581" type="line"/>
    </contour>
    <contour>
      <point x="262" y="575" type="line"/>
      <point x="262" y="572" type="line"/>
      <point x="259" y="572" type="line"/>
      <point x="259" y="575" type="line"/>
    </contour>
    <contour>
      <point x="348" y="569" type="line"/>
      <point x="348" y="566" type="line"/>
      <point x="345" y="566" type="line"/>
      <point x="345" y="569" type="line"/>
    </contour>
    <contour>
      <point x="139" y="563" type="line"/>
      <point x="139" y="560" type="line"/>
      <point x="136" y="560" type="line"/>
      <point x="136" y="563" type="line"/>
    </contour>
    <contour>
      <point x="256" y="563" type="line"/>
      <point x="256" y="560" type="line"/>
      <point x="253" y="560" type="line"/>
      <point x="253" y="563" type="line"/>
    </contour>
    <contour>
      <point x="176" y="556" type="line"/>
      <point x="176" y="554" type="line"/>
      <point x="173" y="554" type="line"/>
      <point x="173" y="556" type="line"/>
    </contour>
    <contour>
      <point x="280" y="550" type="line"/>
      <point x="280" y="547" type="line" name=".hr05"/>
      <point x="277" y="547" type="line"/>
      <point x="277" y="550" type="line"/>
    </contour>
    <contour>
      <point x="139" y="544" type="line"/>
      <point x="139" y="541" type="line" name=".hr06"/>
      <point x="136" y="541" type="line"/>
      <point x="136" y="544" type="line"/>
    </contour>
    <contour>
      <point x="151" y="532" type="line"/>
      <point x="151" y="529" type="line"/>
      <point x="148" y="529" type="line"/>
      <point x="148" y="532" type="line"/>
    </contour>
    <contour>
      <point x="172" y="526" type="curve"/>
      <point x="181" y="529"/>
      <point x="184" y="527"/>
      <point x="181" y="518" type="curve"/>
      <point x="172" y="515"/>
      <point x="169" y="517"/>
    </contour>
    <contour>
      <point x="126" y="513" type="line"/>
      <point x="126" y="510" type="line"/>
      <point x="123" y="510" type="line"/>
      <point x="123" y="513" type="line"/>
    </contour>
    <contour>
      <point x="163" y="507" type="line"/>
      <point x="163" y="504" type="line"/>
      <point x="160" y="504" type="line"/>
      <point x="160" y="507" type="line"/>
    </contour>
    <contour>
      <point x="182" y="483" type="line"/>
      <point x="182" y="480" type="line"/>
      <point x="179" y="480" type="line"/>
      <point x="179" y="483" type="line"/>
    </contour>
    <contour>
      <point x="434" y="298" type="line"/>
      <point x="434" y="295" type="line"/>
      <point x="432" y="295" type="line"/>
      <point x="432" y="298" type="line"/>
    </contour>
    <contour>
      <point x="447" y="255" type="line"/>
      <point x="447" y="252" type="line"/>
      <point x="444" y="252" type="line"/>
      <point x="444" y="255" type="line"/>
    </contour>
    <contour>
      <point x="441" y="242" type="line"/>
      <point x="441" y="239" type="line"/>
      <point x="438" y="239" type="line"/>
      <point x="438" y="242" type="line"/>
    </contour>
    <contour>
      <point x="404" y="181" type="line"/>
      <point x="404" y="178" type="line"/>
      <point x="401" y="178" type="line"/>
      <point x="401" y="181" type="line"/>
    </contour>
    <contour>
      <point x="434" y="174" type="line"/>
      <point x="434" y="172" type="line"/>
      <point x="432" y="172" type="line"/>
      <point x="432" y="174" type="line"/>
    </contour>
    <contour>
      <point x="348" y="150" type="line"/>
      <point x="348" y="147" type="line"/>
      <point x="345" y="147" type="line"/>
      <point x="345" y="150" type="line"/>
    </contour>
    <contour>
      <point x="151" y="144" type="line"/>
      <point x="151" y="141" type="line"/>
      <point x="148" y="141" type="line"/>
      <point x="148" y="144" type="line"/>
    </contour>
    <contour>
      <point x="385" y="138" type="line"/>
      <point x="385" y="135" type="line"/>
      <point x="382" y="135" type="line"/>
      <point x="382" y="138" type="line"/>
    </contour>
    <contour>
      <point x="397" y="138" type="line"/>
      <point x="397" y="135" type="line"/>
      <point x="395" y="135" type="line"/>
      <point x="395" y="138" type="line"/>
    </contour>
    <contour>
      <point x="434" y="138" type="line"/>
      <point x="434" y="135" type="line"/>
      <point x="432" y="135" type="line"/>
      <point x="432" y="138" type="line"/>
    </contour>
    <contour>
      <point x="354" y="119" type="line"/>
      <point x="354" y="116" type="line"/>
      <point x="351" y="116" type="line"/>
      <point x="351" y="119" type="line"/>
    </contour>
    <contour>
      <point x="256" y="113" type="line"/>
      <point x="256" y="110" type="line"/>
      <point x="253" y="110" type="line"/>
      <point x="253" y="113" type="line"/>
    </contour>
    <contour>
      <point x="422" y="113" type="line"/>
      <point x="422" y="110" type="line"/>
      <point x="419" y="110" type="line"/>
      <point x="419" y="113" type="line"/>
    </contour>
    <contour>
      <point x="293" y="101" type="line"/>
      <point x="293" y="98" type="line"/>
      <point x="290" y="98" type="line"/>
      <point x="290" y="101" type="line"/>
    </contour>
    <contour>
      <point x="323" y="101" type="line"/>
      <point x="323" y="98" type="line"/>
      <point x="321" y="98" type="line"/>
      <point x="321" y="101" type="line"/>
    </contour>
    <contour>
      <point x="225" y="94" type="line"/>
      <point x="225" y="92" type="line"/>
      <point x="222" y="92" type="line"/>
      <point x="222" y="94" type="line"/>
    </contour>
  </outline>
</glyph>
<glyph name="six" format="2">
  <advance width="569"/>
  <unicode hex="0036"/>
  <outline>
    <contour>
      <point x="24" y="4" type="line"/>
      <point x="197" y="3"/>
      <point x="369" y="3"/>
      <point x="542" y="4" type="curve"/>
      <point x="542" y="416" type="line"/>
      <point x="450" y="419"/>
      <point x="359" y="414"/>
      <point x="267" y="417" type="curve"/>
      <point x="264" y="418"/>
      <point x="260" y="422"/>
      <point x="257" y="423" type="curve"/>
      <point x="257" y="459" type="line"/>
      <point x="267" y="464" type="line"/>
      <point x="359" y="468"/>
      <point x="450" y="463"/>
      <point x="542" y="466" type="curve"/>
      <point x="542" y="693" type="line" name=".hr01"/>
      <point x="369" y="694"/>
      <point x="197" y="694"/>
      <point x="24" y="693" type="curve"/>
    </contour>
    <contour>
      <point x="265" y="599" type="curve"/>
      <point x="274" y="601"/>
      <point x="277" y="598"/>
      <point x="274" y="590" type="curve"/>
      <point x="266" y="587"/>
      <point x="263" y="590"/>
    </contour>
    <contour>
      <point x="189" y="569" type="line"/>
      <point x="189" y="566" type="line"/>
      <point x="186" y="566" type="line"/>
      <point x="186" y="569" type="line"/>
    </contour>
    <contour>
      <point x="204" y="568" type="curve" smooth="yes"/>
      <point x="217" y="565"/>
      <point x="201" y="546"/>
      <point x="194" y="553" type="curve"/>
      <point x="190" y="560" name=".hr02"/>
      <point x="197" y="569"/>
    </contour>
    <contour>
      <point x="152" y="556" type="line"/>
      <point x="152" y="553" type="line"/>
      <point x="149" y="553" type="line"/>
      <point x="149" y="556" type="line"/>
    </contour>
    <contour>
      <point x="152" y="538" type="line"/>
      <point x="152" y="535" type="line"/>
      <point x="149" y="535" type="line"/>
      <point x="149" y="538" type="line"/>
    </contour>
    <contour>
      <point x="179" y="537" type="curve"/>
      <point x="188" y="540"/>
      <point x="191" y="537"/>
      <point x="188" y="528" type="curve"/>
      <point x="179" y="525"/>
      <point x="176" y="528"/>
    </contour>
    <contour>
      <point x="127" y="525" type="line"/>
      <point x="127" y="523" type="line"/>
      <point x="124" y="523" type="line"/>
      <point x="124" y="525" type="line"/>
    </contour>
    <contour>
      <point x="133" y="501" type="line"/>
      <point x="133" y="498" type="line"/>
      <point x="131" y="498" type="line"/>
      <point x="131" y="501" type="line"/>
    </contour>
    <contour>
      <point x="152" y="501" type="line"/>
      <point x="152" y="498" type="line"/>
      <point x="149" y="498" type="line"/>
      <point x="149" y="501" type="line"/>
    </contour>
    <contour>
      <point x="133" y="488" type="line"/>
      <point x="133" y="486" type="line"/>
      <point x="131" y="486" type="line"/>
      <point x="131" y="488" type="line"/>
    </contour>
    <contour>
      <point x="121" y="476" type="line"/>
      <point x="121" y="473" type="line"/>
      <point x="118" y="473" type="line"/>
      <point x="118" y="476" type="line" name=".hr03"/>
    </contour>
    <contour>
      <point x="133" y="464" type="line"/>
      <point x="133" y="461" type="line"/>
      <point x="131" y="461" type="line"/>
      <point x="131" y="464" type="line" name=".hr04"/>
    </contour>
    <contour>
      <point x="154" y="467" type="line"/>
      <point x="158" y="465" type="line"/>
      <point x="158" y="460" type="line"/>
      <point x="154" y="457" type="line"/>
      <point x="149" y="460" type="line" name=".hr05"/>
      <point x="149" y="465" type="line"/>
    </contour>
    <contour>
      <point x="121" y="451" type="line"/>
      <point x="121" y="449" type="line"/>
      <point x="118" y="449" type="line"/>
      <point x="118" y="451" type="line" name=".hr06"/>
    </contour>
    <contour>
      <point x="142" y="432" type="curve"/>
      <point x="151" y="435"/>
      <point x="154" y="432"/>
      <point x="151" y="423" type="curve"/>
      <point x="142" y="421"/>
      <point x="139" y="424"/>
    </contour>
    <contour>
      <point x="121" y="421" type="line"/>
      <point x="121" y="418" type="line"/>
      <point x="118" y="418" type="line"/>
      <point x="118" y="421" type="line"/>
    </contour>
    <contour>
      <point x="164" y="384" type="line"/>
      <point x="164" y="381" type="line"/>
      <point x="161" y="381" type="line"/>
      <point x="161" y="384" type="line"/>
    </contour>
    <contour>
      <point x="183" y="359" type="line"/>
      <point x="183" y="356" type="line"/>
      <point x="180" y="356" type="line"/>
      <point x="180" y="359" type="line"/>
    </contour>
    <contour>
      <point x="195" y="347" type="line" name=".hr07"/>
      <point x="195" y="344" type="line"/>
      <point x="192" y="344" type="line"/>
      <point x="192" y="347" type="line"/>
    </contour>
    <contour>
      <point x="133" y="341" type="line"/>
      <point x="133" y="338" type="line"/>
      <point x="131" y="338" type="line"/>
      <point x="131" y="341" type="line"/>
    </contour>
    <contour>
      <point x="133" y="310" type="line"/>
      <point x="133" y="307" type="line"/>
      <point x="131" y="307" type="line"/>
      <point x="131" y="310" type="line"/>
    </contour>
    <contour>
      <point x="158" y="285" type="line"/>
      <point x="158" y="282" type="line"/>
      <point x="155" y="282" type="line"/>
      <point x="155" y="285" type="line"/>
    </contour>
    <contour>
      <point x="267" y="280" type="curve"/>
      <point x="284" y="287"/>
      <point x="298" y="284"/>
      <point x="307" y="272" type="curve"/>
      <point x="314" y="255"/>
      <point x="311" y="241"/>
      <point x="299" y="232" type="curve"/>
      <point x="282" y="225"/>
      <point x="268" y="228"/>
      <point x="259" y="240" type="curve"/>
      <point x="252" y="257"/>
      <point x="255" y="271"/>
    </contour>
    <contour>
      <point x="429" y="273" type="line"/>
      <point x="429" y="270" type="line"/>
      <point x="426" y="270" type="line"/>
      <point x="426" y="273" type="line"/>
    </contour>
    <contour>
      <point x="411" y="260" type="line"/>
      <point x="411" y="258" type="line"/>
      <point x="408" y="258" type="line"/>
      <point x="408" y="260" type="line"/>
    </contour>
    <contour>
      <point x="170" y="217" type="line"/>
      <point x="170" y="215" type="line"/>
      <point x="168" y="215" type="line"/>
      <point x="168" y="217" type="line"/>
    </contour>
    <contour>
      <point x="411" y="217" type="line"/>
      <point x="411" y="215" type="line" name=".hr08"/>
      <point x="408" y="215" type="line"/>
      <point x="408" y="217" type="line"/>
    </contour>
    <contour>
      <point x="136" y="193" type="curve"/>
      <point x="145" y="196"/>
      <point x="148" y="194"/>
      <point x="145" y="185" type="curve"/>
      <point x="136" y="182"/>
      <point x="133" y="184"/>
    </contour>
    <contour>
      <point x="127" y="180" type="line"/>
      <point x="127" y="178" type="line"/>
      <point x="124" y="178" type="line"/>
      <point x="124" y="180" type="line"/>
    </contour>
    <contour>
      <point x="380" y="174" type="line"/>
      <point x="380" y="171" type="line"/>
      <point x="377" y="171" type="line"/>
      <point x="377" y="174" type="line"/>
    </contour>
    <contour>
      <point x="177" y="168" type="line"/>
      <point x="177" y="165" type="line"/>
      <point x="174" y="165" type="line"/>
      <point x="174" y="168" type="line" name=".hr09"/>
    </contour>
    <contour>
      <point x="398" y="168" type="line"/>
      <point x="398" y="165" type="line"/>
      <point x="396" y="165" type="line"/>
      <point x="396" y="168" type="line" name=".hr10"/>
    </contour>
    <contour>
      <point x="158" y="162" type="line"/>
      <point x="158" y="159" type="line"/>
      <point x="155" y="159" type="line"/>
      <point x="155" y="162" type="line"/>
    </contour>
    <contour>
      <point x="386" y="162" type="line"/>
      <point x="386" y="159" type="line"/>
      <point x="383" y="159" type="line" name=".hr11"/>
      <point x="383" y="162" type="line"/>
    </contour>
    <contour>
      <point x="423" y="162" type="line"/>
      <point x="423" y="159" type="line"/>
      <point x="420" y="159" type="line"/>
      <point x="420" y="162" type="line"/>
    </contour>
    <contour>
      <point x="121" y="150" type="line"/>
      <point x="121" y="147" type="line"/>
      <point x="118" y="147" type="line"/>
      <point x="118" y="150" type="line"/>
    </contour>
    <contour>
      <point x="133" y="150" type="line"/>
      <point x="133" y="147" type="line"/>
      <point x="131" y="147" type="line"/>
      <point x="131" y="150" type="line"/>
    </contour>
    <contour>
      <point x="170" y="150" type="line"/>
      <point x="170" y="147" type="line"/>
      <point x="168" y="147" type="line" name=".hr12"/>
      <point x="168" y="150" type="line"/>
    </contour>
    <contour>
      <point x="189" y="150" type="line"/>
      <point x="189" y="147" type="line"/>
      <point x="186" y="147" type="line"/>
      <point x="186" y="150" type="line"/>
    </contour>
    <contour>
      <point x="321" y="149" type="curve"/>
      <point x="330" y="149"/>
      <point x="328" y="134"/>
      <point x="319" y="135" type="curve"/>
      <point x="310" y="135"/>
      <point x="312" y="150"/>
    </contour>
    <contour>
      <point x="244" y="143" type="line"/>
      <point x="244" y="141" type="line"/>
      <point x="242" y="141" type="line"/>
      <point x="242" y="143" type="line"/>
    </contour>
    <contour>
      <point x="201" y="125" type="line"/>
      <point x="201" y="122" type="line"/>
      <point x="198" y="122" type="line"/>
      <point x="198" y="125" type="line"/>
    </contour>
    <contour>
      <point x="345" y="129" type="line"/>
      <point x="349" y="126" type="line"/>
      <point x="349" y="121" type="line"/>
      <point x="345" y="118" type="line"/>
      <point x="340" y="121" type="line"/>
      <point x="340" y="126" type="line"/>
    </contour>
    <contour>
      <point x="164" y="119" type="line"/>
      <point x="164" y="116" type="line"/>
      <point x="161" y="116" type="line"/>
      <point x="161" y="119" type="line"/>
    </contour>
    <contour>
      <point x="238" y="106" type="line"/>
      <point x="238" y="104" type="line"/>
      <point x="235" y="104" type="line"/>
      <point x="235" y="106" type="line"/>
    </contour>
    <contour>
      <point x="331" y="94" type="line"/>
      <point x="331" y="91" type="line"/>
      <point x="328" y="91" type="line"/>
      <point x="328" y="94" type="line"/>
    </contour>
  </outline>
</glyph>
<glyph name="seven" format="2">
  <advance width="516"/>
  <unicode hex="0037"/>
  <outline>
    <contour>
      <point x="26" y="694" type="curve"/>
      <point x="25" y="618"/>
      <point x="25" y="542"/>
      <point x="26" y="466" type="curve"/>
      <point x="99" y="466"/>
      <point x="172" y="467"/>
      <point x="247" y="466" type="curve" name=".hr01"/>
      <point x="248" y="311"/>
      <point x="246" y="159"/>
      <point x="247" y="4" type="curve"/>
      <point x="481" y="4" type="line"/>
      <point x="481" y="694" type="line"/>
      <point x="328" y="695"/>
      <point x="178" y="694"/>
    </contour>
    <contour>
      <point x="270" y="600" type="line" name=".hr02"/>
      <point x="270" y="597" type="line"/>
      <point x="267" y="597" type="line"/>
      <point x="267" y="600" type="line"/>
    </contour>
    <contour>
      <point x="329" y="599" type="curve"/>
      <point x="338" y="599"/>
      <point x="337" y="584"/>
      <point x="328" y="584" type="curve"/>
      <point x="319" y="583"/>
      <point x="320" y="598"/>
    </contour>
    <contour>
      <point x="253" y="579" type="line"/>
      <point x="258" y="577" type="line"/>
      <point x="258" y="572" type="line"/>
      <point x="253" y="569" type="line"/>
      <point x="249" y="572" type="line"/>
      <point x="249" y="577" type="line"/>
    </contour>
    <contour>
      <point x="303" y="561" type="line"/>
      <point x="307" y="558" type="line"/>
      <point x="307" y="553" type="line"/>
      <point x="303" y="551" type="line"/>
      <point x="298" y="553" type="line"/>
      <point x="298" y="558" type="line"/>
    </contour>
    <contour>
      <point x="313" y="539" type="line"/>
      <point x="313" y="536" type="line"/>
      <point x="310" y="536" type="line"/>
      <point x="310" y="539" type="line"/>
    </contour>
    <contour>
      <point x="338" y="532" type="line"/>
      <point x="338" y="530" type="line"/>
      <point x="335" y="530" type="line"/>
      <point x="335" y="532" type="line"/>
    </contour>
    <contour>
      <point x="332" y="520" type="line"/>
      <point x="332" y="517" type="line"/>
      <point x="329" y="517" type="line"/>
      <point x="329" y="520" type="line"/>
    </contour>
    <contour>
      <point x="375" y="514" type="line"/>
      <point x="375" y="511" type="line"/>
      <point x="372" y="511" type="line"/>
      <point x="372" y="514" type="line"/>
    </contour>
    <contour>
      <point x="344" y="397" type="line"/>
      <point x="344" y="394" type="line"/>
      <point x="341" y="394" type="line"/>
      <point x="341" y="397" type="line"/>
    </contour>
    <contour>
      <point x="369" y="304" type="line"/>
      <point x="369" y="302" type="line"/>
      <point x="366" y="302" type="line"/>
      <point x="366" y="304" type="line"/>
    </contour>
    <contour>
      <point x="338" y="255" type="line"/>
      <point x="338" y="252" type="line"/>
      <point x="335" y="252" type="line"/>
      <point x="335" y="255" type="line"/>
    </contour>
  </outline>
</glyph>
<glyph name="nine" format="2">
  <advance width="569"/>
  <unicode hex="0039"/>
  <outline>
    <contour>
      <point x="32" y="692" type="line"/>
      <point x="31" y="554"/>
      <point x="31" y="416"/>
      <point x="32" y="279" type="curve"/>
      <point x="124" y="278"/>
      <point x="217" y="280"/>
      <point x="309" y="279" type="curve"/>
      <point x="309" y="230" type="line"/>
      <point x="217" y="229"/>
      <point x="124" y="231"/>
      <point x="32" y="230" type="curve"/>
      <point x="31" y="154"/>
      <point x="31" y="78"/>
      <point x="32" y="2" type="curve"/>
      <point x="543" y="2" type="line"/>
      <point x="543" y="692" type="line"/>
    </contour>
    <contour>
      <point x="262" y="599" type="curve"/>
      <point x="271" y="601"/>
      <point x="274" y="598"/>
      <point x="271" y="590" type="curve"/>
      <point x="262" y="587"/>
      <point x="259" y="590"/>
    </contour>
    <contour>
      <point x="430" y="598" type="line"/>
      <point x="430" y="595" type="line"/>
      <point x="428" y="595" type="line"/>
      <point x="428" y="598" type="line"/>
    </contour>
    <contour>
      <point x="307" y="592" type="line"/>
      <point x="307" y="589" type="line"/>
      <point x="304" y="589" type="line"/>
      <point x="304" y="592" type="line"/>
    </contour>
    <contour>
      <point x="320" y="592" type="line"/>
      <point x="320" y="589" type="line"/>
      <point x="317" y="589" type="line"/>
      <point x="317" y="592" type="line"/>
    </contour>
    <contour>
      <point x="159" y="579" type="line"/>
      <point x="159" y="576" type="line"/>
      <point x="157" y="576" type="line"/>
      <point x="157" y="579" type="line"/>
    </contour>
    <contour>
      <point x="233" y="579" type="line"/>
      <point x="233" y="576" type="line"/>
      <point x="231" y="576" type="line"/>
      <point x="231" y="579" type="line" name=".hr01"/>
    </contour>
    <contour>
      <point x="381" y="579" type="line"/>
      <point x="381" y="576" type="line"/>
      <point x="378" y="576" type="line"/>
      <point x="378" y="579" type="line"/>
    </contour>
    <contour>
      <point x="205" y="572" type="curve"/>
      <point x="214" y="575"/>
      <point x="217" y="572" name=".hr02"/>
      <point x="214" y="563" type="curve"/>
      <point x="205" y="561"/>
      <point x="202" y="564"/>
    </contour>
    <contour>
      <point x="264" y="573" type="line"/>
      <point x="264" y="570" type="line"/>
      <point x="261" y="570" type="line"/>
      <point x="261" y="573" type="line"/>
    </contour>
    <contour>
      <point x="348" y="571" type="curve" smooth="yes"/>
      <point x="355" y="578"/>
      <point x="367" y="567"/>
      <point x="360" y="560" type="curve" smooth="yes"/>
      <point x="353" y="553"/>
      <point x="341" y="564"/>
    </contour>
    <contour>
      <point x="252" y="555" type="line"/>
      <point x="252" y="552" type="line"/>
      <point x="249" y="552" type="line"/>
      <point x="249" y="555" type="line"/>
    </contour>
    <contour>
      <point x="415" y="549" type="curve"/>
      <point x="429" y="543"/>
      <point x="404" y="527"/>
      <point x="404" y="543" type="curve"/>
      <point x="406" y="547" type="line"/>
      <point x="409" y="547"/>
      <point x="412" y="549"/>
    </contour>
    <contour>
      <point x="153" y="530" type="line"/>
      <point x="153" y="527" type="line"/>
      <point x="150" y="527" type="line"/>
      <point x="150" y="530" type="line"/>
    </contour>
    <contour>
      <point x="424" y="524" type="line"/>
      <point x="424" y="521" type="line"/>
      <point x="422" y="521" type="line"/>
      <point x="422" y="524" type="line"/>
    </contour>
    <contour>
      <point x="135" y="512" type="line"/>
      <point x="135" y="509" type="line"/>
      <point x="132" y="509" type="line"/>
      <point x="132" y="512" type="line"/>
    </contour>
    <contour>
      <point x="184" y="512" type="line" name=".hr03"/>
      <point x="184" y="509" type="line"/>
      <point x="181" y="509" type="line"/>
      <point x="181" y="512" type="line"/>
    </contour>
    <contour>
      <point x="394" y="505" type="line"/>
      <point x="394" y="503" type="line"/>
      <point x="391" y="503" type="line"/>
      <point x="391" y="505" type="line"/>
    </contour>
    <contour>
      <point x="409" y="506" type="curve"/>
      <point x="418" y="509" name=".hr04"/>
      <point x="420" y="506"/>
      <point x="417" y="497" type="curve"/>
      <point x="408" y="494"/>
      <point x="406" y="497" name=".hr05"/>
    </contour>
    <contour>
      <point x="147" y="493" type="line" name=".hr06"/>
      <point x="147" y="490" type="line"/>
      <point x="144" y="490" type="line"/>
      <point x="144" y="493" type="line"/>
    </contour>
    <contour>
      <point x="394" y="493" type="line"/>
      <point x="394" y="490" type="line" name=".hr07"/>
      <point x="391" y="490" type="line"/>
      <point x="391" y="493" type="line"/>
    </contour>
    <contour>
      <point x="443" y="481" type="line"/>
      <point x="443" y="478" type="line"/>
      <point x="440" y="478" type="line"/>
      <point x="440" y="481" type="line"/>
    </contour>
    <contour>
      <point x="167" y="468" type="line"/>
      <point x="169" y="464" type="line" name=".hr08"/>
      <point x="167" y="459" type="line"/>
      <point x="162" y="459" type="line"/>
      <point x="159" y="464" type="line"/>
      <point x="162" y="468" type="line"/>
    </contour>
    <contour>
      <point x="449" y="468" type="line"/>
      <point x="449" y="466" type="line"/>
      <point x="446" y="466" type="line"/>
      <point x="446" y="468" type="line"/>
    </contour>
    <contour>
      <point x="309" y="464" type="line"/>
      <point x="309" y="421" type="line"/>
      <point x="266" y="421" type="line"/>
      <point x="266" y="464" type="line"/>
    </contour>
    <contour>
      <point x="437" y="456" type="line"/>
      <point x="437" y="453" type="line"/>
      <point x="434" y="453" type="line"/>
      <point x="434" y="456" type="line"/>
    </contour>
    <contour>
      <point x="420" y="441" type="line"/>
      <point x="424" y="439" type="line"/>
      <point x="424" y="434" type="line"/>
      <point x="420" y="431" type="line"/>
      <point x="415" y="434" type="line"/>
      <point x="415" y="439" type="line"/>
    </contour>
    <contour>
      <point x="153" y="425" type="line"/>
      <point x="153" y="422" type="line"/>
      <point x="150" y="422" type="line"/>
      <point x="150" y="425" type="line"/>
    </contour>
    <contour>
      <point x="400" y="425" type="line"/>
      <point x="400" y="422" type="line"/>
      <point x="397" y="422" type="line"/>
      <point x="397" y="425" type="line"/>
    </contour>
    <contour>
      <point x="394" y="382" type="line"/>
      <point x="394" y="379" type="line"/>
      <point x="391" y="379" type="line"/>
      <point x="391" y="382" type="line"/>
    </contour>
    <contour>
      <point x="412" y="382" type="line"/>
      <point x="412" y="379" type="line"/>
      <point x="409" y="379" type="line"/>
      <point x="409" y="382" type="line"/>
    </contour>
    <contour>
      <point x="376" y="345" type="line"/>
      <point x="379" y="341" type="line"/>
      <point x="376" y="336" type="line"/>
      <point x="371" y="336" type="line"/>
      <point x="369" y="341" type="line"/>
      <point x="371" y="345" type="line"/>
    </contour>
    <contour>
      <point x="412" y="327" type="line"/>
      <point x="412" y="324" type="line"/>
      <point x="409" y="324" type="line"/>
      <point x="409" y="327" type="line"/>
    </contour>
    <contour>
      <point x="443" y="290" type="line"/>
      <point x="443" y="287" type="line"/>
      <point x="440" y="287" type="line"/>
      <point x="440" y="290" type="line"/>
    </contour>
    <contour>
      <point x="400" y="253" type="line"/>
      <point x="400" y="250" type="line"/>
      <point x="397" y="250" type="line"/>
      <point x="397" y="253" type="line"/>
    </contour>
    <contour>
      <point x="424" y="247" type="line"/>
      <point x="424" y="244" type="line"/>
      <point x="422" y="244" type="line"/>
      <point x="422" y="247" type="line"/>
    </contour>
    <contour>
      <point x="437" y="197" type="line"/>
      <point x="437" y="194" type="line"/>
      <point x="434" y="194" type="line"/>
      <point x="434" y="197" type="line"/>
    </contour>
    <contour>
      <point x="449" y="197" type="line"/>
      <point x="449" y="194" type="line"/>
      <point x="446" y="194" type="line"/>
      <point x="446" y="197" type="line"/>
    </contour>
    <contour>
      <point x="385" y="180" type="curve"/>
      <point x="394" y="182"/>
      <point x="397" y="179"/>
      <point x="394" y="171" type="curve"/>
      <point x="386" y="168"/>
      <point x="383" y="171"/>
    </contour>
    <contour>
      <point x="412" y="173" type="line"/>
      <point x="412" y="170" type="line"/>
      <point x="409" y="170" type="line"/>
      <point x="409" y="173" type="line"/>
    </contour>
    <contour>
      <point x="377" y="170" type="line"/>
      <point x="381" y="168" type="line"/>
      <point x="381" y="163" type="line"/>
      <point x="377" y="160" type="line"/>
      <point x="372" y="163" type="line"/>
      <point x="372" y="168" type="line"/>
    </contour>
    <contour>
      <point x="402" y="161" type="curve"/>
      <point x="411" y="164"/>
      <point x="414" y="161"/>
      <point x="411" y="152" type="curve"/>
      <point x="403" y="150"/>
      <point x="400" y="153"/>
    </contour>
    <contour>
      <point x="264" y="123" type="line"/>
      <point x="264" y="121" type="line"/>
      <point x="261" y="121" type="line"/>
      <point x="261" y="123" type="line"/>
    </contour>
    <contour>
      <point x="298" y="124" type="curve"/>
      <point x="307" y="127"/>
      <point x="309" y="124"/>
      <point x="306" y="115" type="curve"/>
      <point x="298" y="113"/>
      <point x="295" y="116"/>
    </contour>
    <contour>
      <point x="233" y="111" type="line"/>
      <point x="233" y="108" type="line"/>
      <point x="231" y="108" type="line"/>
      <point x="231" y="111" type="line"/>
    </contour>
    <contour>
      <point x="320" y="105" type="line"/>
      <point x="320" y="102" type="line"/>
      <point x="317" y="102" type="line"/>
      <point x="317" y="105" type="line"/>
    </contour>
    <contour>
      <point x="332" y="105" type="line"/>
      <point x="332" y="102" type="line"/>
      <point x="329" y="102" type="line" name=".hr09"/>
      <point x="329" y="105" type="line"/>
    </contour>
    <contour>
      <point x="369" y="105" type="line"/>
      <point x="369" y="102" type="line"/>
      <point x="366" y="102" type="line"/>
      <point x="366" y="105" type="line"/>
    </contour>
    <contour>
      <point x="338" y="93" type="line"/>
      <point x="338" y="90" type="line"/>
      <point x="335" y="90" type="line"/>
      <point x="335" y="93" type="line"/>
    </contour>
  </outline>
</glyph>
<glyph name="semicolon" format="2">
  <advance width="289"/>
  <unicode hex="003B"/>
  <outline>
    <contour>
      <point x="23" y="696" type="curve"/>
      <point x="22" y="620"/>
      <point x="22" y="544"/>
      <point x="23" y="469" type="curve"/>
      <point x="101" y="468"/>
      <point x="179" y="468"/>
      <point x="257" y="469" type="curve"/>
      <point x="258" y="545"/>
      <point x="257" y="620"/>
      <point x="257" y="696" type="curve"/>
      <point x="179" y="697"/>
      <point x="101" y="697"/>
    </contour>
    <contour>
      <point x="23" y="234" type="curve"/>
      <point x="22" y="157"/>
      <point x="21" y="79"/>
      <point x="24" y="2" type="curve"/>
      <point x="55" y="-1"/>
      <point x="83" y="0"/>
      <point x="114" y="-1" type="curve"/>
      <point x="114" y="-12"/>
      <point x="116" y="-32"/>
      <point x="116" y="-43" type="curve"/>
      <point x="163" y="-43"/>
      <point x="209" y="-44"/>
      <point x="256" y="-43" type="curve"/>
      <point x="259" y="50"/>
      <point x="257" y="142"/>
      <point x="257" y="234" type="curve"/>
      <point x="179" y="235"/>
      <point x="101" y="235"/>
    </contour>
  </outline>
</glyph>
<glyph name="question" format="2">
  <advance width="569"/>
  <unicode hex="003F"/>
  <outline>
    <contour>
      <point x="24" y="696" type="line"/>
      <point x="24" y="620"/>
      <point x="21" y="546" name=".hr01"/>
      <point x="24" y="470" type="curve"/>
      <point x="32" y="462" type="line" name=".hr02"/>
      <point x="124" y="459"/>
      <point x="215" y="463"/>
      <point x="307" y="462" type="curve"/>
      <point x="307" y="454"/>
      <point x="307" y="436"/>
      <point x="308" y="427" type="curve"/>
      <point x="299" y="419" type="line"/>
      <point x="254" y="416"/>
      <point x="210" y="419"/>
      <point x="166" y="419" type="curve"/>
      <point x="165" y="374"/>
      <point x="164" y="330"/>
      <point x="165" y="283" type="curve"/>
      <point x="398" y="283" type="line"/>
      <point x="399" y="294"/>
      <point x="400" y="315"/>
      <point x="400" y="326" type="curve" name=".hr03"/>
      <point x="447" y="326"/>
      <point x="493" y="327"/>
      <point x="540" y="327" type="curve"/>
      <point x="543" y="451"/>
      <point x="541" y="572"/>
      <point x="541" y="696" type="curve"/>
    </contour>
    <contour>
      <point x="354" y="608" type="line"/>
      <point x="354" y="605" type="line"/>
      <point x="352" y="605" type="line"/>
      <point x="352" y="608" type="line"/>
    </contour>
    <contour>
      <point x="218" y="602" type="curve" smooth="yes"/>
      <point x="223" y="609"/>
      <point x="235" y="600"/>
      <point x="230" y="593" type="curve" smooth="yes"/>
      <point x="225" y="586"/>
      <point x="213" y="594"/>
    </contour>
    <contour>
      <point x="368" y="596" type="line"/>
      <point x="370" y="591" type="line"/>
      <point x="368" y="587" type="line" name=".hr04"/>
      <point x="363" y="587" type="line"/>
      <point x="360" y="591" type="line" name=".hr05"/>
      <point x="363" y="596" type="line"/>
    </contour>
    <contour>
      <point x="342" y="590" type="line"/>
      <point x="342" y="587" type="line"/>
      <point x="339" y="587" type="line"/>
      <point x="339" y="590" type="line"/>
    </contour>
    <contour>
      <point x="244" y="583" type="line"/>
      <point x="244" y="581" type="line"/>
      <point x="241" y="581" type="line"/>
      <point x="241" y="583" type="line"/>
    </contour>
    <contour>
      <point x="391" y="583" type="line"/>
      <point x="391" y="581" type="line"/>
      <point x="389" y="581" type="line"/>
      <point x="389" y="583" type="line"/>
    </contour>
    <contour>
      <point x="293" y="577" type="line"/>
      <point x="293" y="574" type="line"/>
      <point x="290" y="574" type="line"/>
      <point x="290" y="577" type="line"/>
    </contour>
    <contour>
      <point x="324" y="565" type="line"/>
      <point x="324" y="562" type="line"/>
      <point x="321" y="562" type="line"/>
      <point x="321" y="565" type="line"/>
    </contour>
    <contour>
      <point x="406" y="564" type="curve"/>
      <point x="415" y="567"/>
      <point x="418" y="564"/>
      <point x="415" y="555" type="curve"/>
      <point x="407" y="553"/>
      <point x="404" y="556"/>
    </contour>
    <contour>
      <point x="374" y="559" type="line"/>
      <point x="377" y="554" type="line"/>
      <point x="374" y="550" type="line"/>
      <point x="369" y="550" type="line"/>
      <point x="366" y="554" type="line"/>
      <point x="369" y="559" type="line"/>
    </contour>
    <contour>
      <point x="362" y="546" type="line"/>
      <point x="364" y="542" type="line"/>
      <point x="362" y="538" type="line" name=".hr06"/>
      <point x="357" y="538" type="line"/>
      <point x="354" y="542" type="line"/>
      <point x="357" y="546" type="line"/>
    </contour>
    <contour>
      <point x="393" y="544" type="line" name=".hr07"/>
      <point x="398" y="541" type="line"/>
      <point x="398" y="536" type="line"/>
      <point x="393" y="534" type="line" name=".hr09"/>
      <point x="389" y="536" type="line"/>
      <point x="389" y="541" type="line"/>
    </contour>
    <contour>
      <point x="373" y="534" type="line"/>
      <point x="373" y="531" type="line"/>
      <point x="370" y="531" type="line"/>
      <point x="370" y="534" type="line"/>
    </contour>
    <contour>
      <point x="447" y="534" type="line" name=".hr10"/>
      <point x="447" y="531" type="line"/>
      <point x="444" y="531" type="line"/>
      <point x="444" y="534" type="line"/>
    </contour>
    <contour>
      <point x="398" y="528" type="line"/>
      <point x="398" y="525" type="line"/>
      <point x="395" y="525" type="line" name=".hr11"/>
      <point x="395" y="528" type="line"/>
    </contour>
    <contour>
      <point x="398" y="516" type="line"/>
      <point x="398" y="513" type="line"/>
      <point x="395" y="513" type="line"/>
      <point x="395" y="516" type="line"/>
    </contour>
    <contour>
      <point x="422" y="510" type="line"/>
      <point x="422" y="507" type="line"/>
      <point x="419" y="507" type="line"/>
      <point x="419" y="510" type="line"/>
    </contour>
    <contour>
      <point x="422" y="485" type="line"/>
      <point x="422" y="482" type="line"/>
      <point x="419" y="482" type="line"/>
      <point x="419" y="485" type="line"/>
    </contour>
    <contour>
      <point x="404" y="473" type="line"/>
      <point x="404" y="470" type="line"/>
      <point x="401" y="470" type="line"/>
      <point x="401" y="473" type="line"/>
    </contour>
    <contour>
      <point x="398" y="442" type="line"/>
      <point x="398" y="439" type="line"/>
      <point x="395" y="439" type="line"/>
      <point x="395" y="442" type="line"/>
    </contour>
    <contour>
      <point x="410" y="442" type="line"/>
      <point x="410" y="439" type="line"/>
      <point x="407" y="439" type="line"/>
      <point x="407" y="442" type="line"/>
    </contour>
    <contour>
      <point x="165" y="234" type="curve"/>
      <point x="166" y="157"/>
      <point x="161" y="79"/>
      <point x="168" y="2" type="curve"/>
      <point x="171" y="2"/>
      <point x="175" y="1"/>
      <point x="179" y="0" type="curve"/>
      <point x="252" y="-3"/>
      <point x="325" y="-2"/>
      <point x="398" y="1" type="curve"/>
      <point x="402" y="80"/>
      <point x="399" y="155"/>
      <point x="399" y="234" type="curve"/>
      <point x="320" y="235"/>
      <point x="244" y="234"/>
    </contour>
  </outline>
</glyph>
<glyph name="A" format="2">
  <advance width="565"/>
  <unicode hex="0041"/>
  <outline>
    <contour>
      <point x="25" y="699" type="curve"/>
      <point x="24" y="621"/>
      <point x="24" y="543"/>
      <point x="25" y="465" type="curve"/>
      <point x="117" y="464"/>
      <point x="209" y="466"/>
      <point x="301" y="465" type="curve"/>
      <point x="302" y="418"/>
      <point x="302" y="371"/>
      <point x="301" y="324" type="curve"/>
      <point x="260" y="324" type="line"/>
      <point x="257" y="420" type="line"/>
      <point x="180" y="425"/>
      <point x="102" y="421" name=".hr01"/>
      <point x="25" y="422" type="curve"/>
      <point x="24" y="282" name=".hr02"/>
      <point x="24" y="142"/>
      <point x="25" y="3" type="curve"/>
      <point x="102" y="3"/>
      <point x="179" y="3"/>
      <point x="258" y="4" type="curve"/>
      <point x="258" y="65"/>
      <point x="259" y="125"/>
      <point x="258" y="188" type="curve" name=".hr03"/>
      <point x="302" y="188" type="line"/>
      <point x="302" y="3" type="line" name=".hr04"/>
      <point x="535" y="3" type="line"/>
      <point x="536" y="235"/>
      <point x="536" y="467"/>
      <point x="535" y="699" type="curve"/>
      <point x="365" y="700"/>
      <point x="195" y="700"/>
    </contour>
    <contour>
      <point x="374" y="599" type="line"/>
      <point x="374" y="596" type="line" name=".hr05"/>
      <point x="371" y="596" type="line"/>
      <point x="371" y="599" type="line"/>
    </contour>
    <contour>
      <point x="326" y="597" type="line"/>
      <point x="331" y="594" type="line"/>
      <point x="331" y="589" type="line"/>
      <point x="326" y="586" type="line"/>
      <point x="322" y="589" type="line"/>
      <point x="322" y="594" type="line"/>
    </contour>
    <contour>
      <point x="373" y="587" type="curve"/>
      <point x="378" y="591"/>
      <point x="389" y="591"/>
      <point x="393" y="584" type="curve"/>
      <point x="393" y="572"/>
      <point x="363" y="575"/>
    </contour>
    <contour>
      <point x="417" y="574" type="line"/>
      <point x="417" y="572" type="line"/>
      <point x="414" y="572" type="line" name=".hr06"/>
      <point x="414" y="574" type="line"/>
    </contour>
    <contour>
      <point x="411" y="562" type="line"/>
      <point x="411" y="559" type="line"/>
      <point x="408" y="559" type="line" name=".hr07"/>
      <point x="408" y="562" type="line"/>
    </contour>
    <contour>
      <point x="265" y="560" type="line"/>
      <point x="269" y="557" type="line"/>
      <point x="269" y="552" type="line"/>
      <point x="265" y="550" type="line"/>
      <point x="260" y="552" type="line"/>
      <point x="260" y="557" type="line"/>
    </contour>
    <contour>
      <point x="380" y="550" type="line"/>
      <point x="380" y="547" type="line"/>
      <point x="377" y="547" type="line" name=".hr09"/>
      <point x="377" y="550" type="line"/>
    </contour>
    <contour>
      <point x="355" y="544" type="line" name=".hr08"/>
      <point x="355" y="541" type="line"/>
      <point x="353" y="541" type="line" name=".hr10"/>
      <point x="353" y="544" type="line"/>
    </contour>
    <contour>
      <point x="368" y="531" type="line"/>
      <point x="368" y="529" type="line"/>
      <point x="365" y="529" type="line"/>
      <point x="365" y="531" type="line"/>
    </contour>
    <contour>
      <point x="405" y="531" type="line"/>
      <point x="405" y="529" type="line"/>
      <point x="402" y="529" type="line"/>
      <point x="402" y="531" type="line"/>
    </contour>
    <contour>
      <point x="383" y="505" type="curve"/>
      <point x="394" y="514"/>
      <point x="398" y="485"/>
      <point x="386" y="485" type="curve"/>
      <point x="379" y="489"/>
      <point x="379" y="498"/>
    </contour>
    <contour>
      <point x="405" y="501" type="line"/>
      <point x="405" y="498" type="line"/>
      <point x="402" y="498" type="line"/>
      <point x="402" y="501" type="line"/>
    </contour>
    <contour>
      <point x="429" y="445" type="line"/>
      <point x="429" y="442" type="line"/>
      <point x="426" y="442" type="line"/>
      <point x="426" y="445" type="line"/>
    </contour>
    <contour>
      <point x="411" y="383" type="line"/>
      <point x="411" y="381" type="line"/>
      <point x="408" y="381" type="line"/>
      <point x="408" y="383" type="line"/>
    </contour>
    <contour>
      <point x="400" y="359" type="line"/>
      <point x="402" y="354" type="line"/>
      <point x="400" y="350" type="line"/>
      <point x="395" y="350" type="line"/>
      <point x="392" y="354" type="line"/>
      <point x="395" y="359" type="line"/>
    </contour>
    <contour>
      <point x="417" y="340" type="line"/>
      <point x="417" y="338" type="line"/>
      <point x="414" y="338" type="line"/>
      <point x="414" y="340" type="line"/>
    </contour>
    <contour>
      <point x="417" y="328" type="line"/>
      <point x="417" y="325" type="line"/>
      <point x="414" y="325" type="line"/>
      <point x="414" y="328" type="line"/>
    </contour>
    <contour>
      <point x="423" y="297" type="line"/>
      <point x="423" y="294" type="line"/>
      <point x="420" y="294" type="line"/>
      <point x="420" y="297" type="line"/>
    </contour>
    <contour>
      <point x="398" y="285" type="line"/>
      <point x="398" y="282" type="line"/>
      <point x="396" y="282" type="line"/>
      <point x="396" y="285" type="line"/>
    </contour>
    <contour>
      <point x="407" y="274" type="curve"/>
      <point x="415" y="269"/>
      <point x="415" y="265"/>
      <point x="407" y="261" type="curve"/>
      <point x="399" y="265"/>
      <point x="399" y="269"/>
    </contour>
    <contour>
      <point x="189" y="254" type="line"/>
      <point x="189" y="251" type="line"/>
      <point x="186" y="251" type="line"/>
      <point x="186" y="254" type="line"/>
    </contour>
    <contour>
      <point x="400" y="258" type="line" name=".hr11"/>
      <point x="405" y="255" type="line"/>
      <point x="405" y="250" type="line"/>
      <point x="400" y="248" type="line"/>
      <point x="396" y="250" type="line"/>
      <point x="396" y="255" type="line"/>
    </contour>
    <contour>
      <point x="121" y="242" type="line"/>
      <point x="121" y="239" type="line"/>
      <point x="118" y="239" type="line"/>
      <point x="118" y="242" type="line"/>
    </contour>
    <contour>
      <point x="387" y="242" type="line"/>
      <point x="390" y="237" type="line"/>
      <point x="387" y="233" type="line"/>
      <point x="382" y="233" type="line"/>
      <point x="380" y="237" type="line"/>
      <point x="382" y="242" type="line"/>
    </contour>
    <contour>
      <point x="429" y="236" type="line" name=".hr12"/>
      <point x="429" y="233" type="line"/>
      <point x="426" y="233" type="line"/>
      <point x="426" y="236" type="line"/>
    </contour>
    <contour>
      <point x="158" y="229" type="line"/>
      <point x="158" y="227" type="line"/>
      <point x="155" y="227" type="line"/>
      <point x="155" y="229" type="line"/>
    </contour>
    <contour>
      <point x="121" y="217" type="line"/>
      <point x="121" y="214" type="line" name=".hr13"/>
      <point x="118" y="214" type="line"/>
      <point x="118" y="217" type="line"/>
    </contour>
    <contour>
      <point x="171" y="211" type="line" name=".hr14"/>
      <point x="171" y="208" type="line"/>
      <point x="168" y="208" type="line"/>
      <point x="168" y="211" type="line"/>
    </contour>
    <contour>
      <point x="152" y="199" type="line" name=".hr15"/>
      <point x="152" y="196" type="line"/>
      <point x="149" y="196" type="line"/>
      <point x="149" y="199" type="line"/>
    </contour>
  </outline>
</glyph>
<glyph name="B" format="2">
  <advance width="565"/>
  <unicode hex="0042"/>
  <outline>
    <contour>
      <point x="28" y="697" type="curve"/>
      <point x="24" y="620"/>
      <point x="27" y="542"/>
      <point x="27" y="465" type="curve"/>
      <point x="122" y="462"/>
      <point x="213" y="467"/>
      <point x="308" y="463" type="curve"/>
      <point x="312" y="432"/>
      <point x="310" y="403"/>
      <point x="310" y="372" type="curve"/>
      <point x="262" y="372" type="line"/>
      <point x="261" y="383"/>
      <point x="260" y="404"/>
      <point x="260" y="415" type="curve"/>
      <point x="182" y="416"/>
      <point x="104" y="416"/>
      <point x="27" y="415" type="curve"/>
      <point x="26" y="278"/>
      <point x="26" y="140"/>
      <point x="27" y="3" type="curve"/>
      <point x="199" y="0"/>
      <point x="369" y="5"/>
      <point x="542" y="0" type="curve"/>
      <point x="534" y="107"/>
      <point x="539" y="210"/>
      <point x="538" y="317" type="curve"/>
      <point x="539" y="445"/>
      <point x="534" y="570"/>
      <point x="542" y="699" type="curve"/>
      <point x="370" y="698" name=".hr01"/>
      <point x="200" y="701"/>
    </contour>
    <contour>
      <point x="271" y="598" type="line"/>
      <point x="271" y="596" type="line"/>
      <point x="268" y="596" type="line"/>
      <point x="268" y="598" type="line"/>
    </contour>
    <contour>
      <point x="397" y="592" type="curve"/>
      <point x="406" y="594" name=".hr02"/>
      <point x="409" y="591"/>
      <point x="406" y="583" type="curve"/>
      <point x="397" y="580"/>
      <point x="394" y="583"/>
    </contour>
    <contour>
      <point x="370" y="586" type="line"/>
      <point x="370" y="583" type="line"/>
      <point x="367" y="583" type="line" name=".hr03"/>
      <point x="367" y="586" type="line"/>
    </contour>
    <contour>
      <point x="291" y="568" type="line"/>
      <point x="293" y="563" type="line"/>
      <point x="291" y="559" type="line" name=".hr04"/>
      <point x="286" y="559" type="line"/>
      <point x="283" y="563" type="line"/>
      <point x="286" y="568" type="line"/>
    </contour>
    <contour>
      <point x="351" y="568" type="line"/>
      <point x="351" y="565" type="line"/>
      <point x="349" y="565" type="line"/>
      <point x="349" y="568" type="line"/>
    </contour>
    <contour>
      <point x="364" y="568" type="line"/>
      <point x="364" y="565" type="line"/>
      <point x="361" y="565" type="line"/>
      <point x="361" y="568" type="line"/>
    </contour>
    <contour>
      <point x="327" y="562" type="line"/>
      <point x="327" y="559" type="line"/>
      <point x="324" y="559" type="line" name=".hr05"/>
      <point x="324" y="562" type="line"/>
    </contour>
    <contour>
      <point x="382" y="562" type="line"/>
      <point x="382" y="559" type="line"/>
      <point x="379" y="559" type="line"/>
      <point x="379" y="562" type="line"/>
    </contour>
    <contour>
      <point x="388" y="549" type="line"/>
      <point x="388" y="546" type="line"/>
      <point x="385" y="546" type="line" name=".hr06"/>
      <point x="385" y="549" type="line"/>
    </contour>
    <contour>
      <point x="407" y="549" type="line"/>
      <point x="407" y="546" type="line"/>
      <point x="404" y="546" type="line"/>
      <point x="404" y="549" type="line"/>
    </contour>
    <contour>
      <point x="370" y="543" type="line"/>
      <point x="370" y="540" type="line"/>
      <point x="367" y="540" type="line" name=".hr07"/>
      <point x="367" y="543" type="line"/>
    </contour>
    <contour>
      <point x="382" y="531" type="line"/>
      <point x="382" y="528" type="line"/>
      <point x="379" y="528" type="line"/>
      <point x="379" y="531" type="line"/>
    </contour>
    <contour>
      <point x="413" y="512" type="line"/>
      <point x="413" y="509" type="line"/>
      <point x="410" y="509" type="line"/>
      <point x="410" y="512" type="line"/>
    </contour>
    <contour>
      <point x="425" y="506" type="line"/>
      <point x="425" y="503" type="line"/>
      <point x="422" y="503" type="line"/>
      <point x="422" y="506" type="line"/>
    </contour>
    <contour>
      <point x="444" y="494" type="line"/>
      <point x="444" y="491" type="line"/>
      <point x="441" y="491" type="line"/>
      <point x="441" y="494" type="line"/>
    </contour>
    <contour>
      <point x="407" y="395" type="line"/>
      <point x="407" y="392" type="line"/>
      <point x="404" y="392" type="line" name=".hr08"/>
      <point x="404" y="395" type="line"/>
    </contour>
    <contour>
      <point x="436" y="396" type="curve"/>
      <point x="445" y="399"/>
      <point x="447" y="396"/>
      <point x="444" y="387" type="curve"/>
      <point x="435" y="384"/>
      <point x="433" y="387"/>
    </contour>
    <contour>
      <point x="376" y="309" type="line"/>
      <point x="376" y="306" type="line"/>
      <point x="373" y="306" type="line"/>
      <point x="373" y="309" type="line"/>
    </contour>
    <contour>
      <point x="130" y="290" type="line"/>
      <point x="130" y="288" type="line"/>
      <point x="127" y="288" type="line"/>
      <point x="127" y="290" type="line"/>
    </contour>
    <contour>
      <point x="413" y="290" type="line"/>
      <point x="413" y="288" type="line"/>
      <point x="410" y="288" type="line"/>
      <point x="410" y="290" type="line" name=".hr09"/>
    </contour>
    <contour>
      <point x="431" y="272" type="line"/>
      <point x="431" y="269" type="line"/>
      <point x="429" y="269" type="line"/>
      <point x="429" y="272" type="line"/>
    </contour>
    <contour>
      <point x="156" y="263" type="line"/>
      <point x="160" y="261" type="line"/>
      <point x="160" y="256" type="line"/>
      <point x="156" y="253" type="line"/>
      <point x="151" y="256" type="line"/>
      <point x="151" y="261" type="line"/>
    </contour>
    <contour>
      <point x="148" y="241" type="line"/>
      <point x="148" y="238" type="line"/>
      <point x="145" y="238" type="line"/>
      <point x="145" y="241" type="line"/>
    </contour>
    <contour>
      <point x="403" y="240" type="curve"/>
      <point x="415" y="249"/>
      <point x="420" y="228"/>
      <point x="410" y="225" type="curve" smooth="yes"/>
      <point x="402" y="222" name=".hr10"/>
      <point x="398" y="235"/>
    </contour>
    <contour>
      <point x="167" y="235" type="line"/>
      <point x="167" y="232" type="line"/>
      <point x="164" y="232" type="line"/>
      <point x="164" y="235" type="line"/>
    </contour>
    <contour>
      <point x="310" y="231" type="line"/>
      <point x="310" y="187" type="line"/>
      <point x="261" y="187" type="line"/>
      <point x="261" y="231" type="line"/>
    </contour>
    <contour>
      <point x="167" y="223" type="line" name=".hr11"/>
      <point x="167" y="220" type="line"/>
      <point x="164" y="220" type="line"/>
      <point x="164" y="223" type="line"/>
    </contour>
    <contour>
      <point x="420" y="204" type="line" name=".hr12"/>
      <point x="423" y="200" type="line"/>
      <point x="420" y="195" type="line"/>
      <point x="415" y="195" type="line"/>
      <point x="413" y="200" type="line"/>
      <point x="415" y="204" type="line"/>
    </contour>
    <contour>
      <point x="407" y="173" type="line"/>
      <point x="407" y="171" type="line"/>
      <point x="404" y="171" type="line" name=".hr13"/>
      <point x="404" y="173" type="line" name=".hr14"/>
    </contour>
    <contour>
      <point x="160" y="155" type="line" name=".hr15"/>
      <point x="160" y="152" type="line"/>
      <point x="158" y="152" type="line"/>
      <point x="158" y="155" type="line"/>
    </contour>
  </outline>
</glyph>
<glyph name="F" format="2">
  <advance width="565"/>
  <unicode hex="0046"/>
  <outline>
    <contour>
      <point x="27" y="698" type="curve"/>
      <point x="24" y="651"/>
      <point x="25" y="605"/>
      <point x="25" y="558" type="curve"/>
      <point x="26" y="373"/>
      <point x="25" y="191"/>
      <point x="26" y="4" type="curve"/>
      <point x="104" y="3"/>
      <point x="182" y="3"/>
      <point x="260" y="4" type="curve"/>
      <point x="261" y="96"/>
      <point x="259" y="189"/>
      <point x="260" y="281" type="curve"/>
      <point x="352" y="282"/>
      <point x="445" y="280"/>
      <point x="537" y="281" type="curve"/>
      <point x="538" y="328"/>
      <point x="538" y="375"/>
      <point x="537" y="422" type="curve"/>
      <point x="444" y="425"/>
      <point x="352" y="422"/>
      <point x="260" y="423" type="curve"/>
      <point x="260" y="466" type="line"/>
      <point x="352" y="467"/>
      <point x="444" y="465"/>
      <point x="537" y="466" type="curve"/>
      <point x="538" y="545"/>
      <point x="537" y="621"/>
      <point x="537" y="700" type="curve"/>
      <point x="366" y="699"/>
      <point x="198" y="702"/>
    </contour>
    <contour>
      <point x="295" y="606" type="line"/>
      <point x="295" y="603" type="line" name=".hr01"/>
      <point x="292" y="603" type="line"/>
      <point x="292" y="606" type="line"/>
    </contour>
    <contour>
      <point x="252" y="600" type="line"/>
      <point x="252" y="597" type="line" name=".hr02"/>
      <point x="249" y="597" type="line"/>
      <point x="249" y="600" type="line"/>
    </contour>
    <contour>
      <point x="283" y="594" type="line"/>
      <point x="283" y="591" type="line" name=".hr03"/>
      <point x="280" y="591" type="line"/>
      <point x="280" y="594" type="line"/>
    </contour>
    <contour>
      <point x="242" y="581" type="curve" smooth="yes"/>
      <point x="251" y="581" name=".hr04"/>
      <point x="249" y="566"/>
      <point x="241" y="566" type="curve" smooth="yes"/>
      <point x="230" y="566"/>
      <point x="233" y="581"/>
    </contour>
    <contour>
      <point x="270" y="581" type="line"/>
      <point x="270" y="578" type="line"/>
      <point x="268" y="578" type="line"/>
      <point x="268" y="581" type="line"/>
    </contour>
    <contour>
      <point x="210" y="579" type="line"/>
      <point x="215" y="576" type="line"/>
      <point x="215" y="571" type="line"/>
      <point x="210" y="569" type="line"/>
      <point x="206" y="571" type="line"/>
      <point x="206" y="576" type="line" name=".hr05"/>
    </contour>
    <contour>
      <point x="155" y="573" type="line"/>
      <point x="159" y="570" type="line"/>
      <point x="159" y="565" type="line"/>
      <point x="155" y="562" type="line"/>
      <point x="151" y="565" type="line"/>
      <point x="151" y="570" type="line"/>
    </contour>
    <contour>
      <point x="173" y="569" type="line"/>
      <point x="176" y="564" type="line"/>
      <point x="173" y="560" type="line"/>
      <point x="168" y="560" type="line"/>
      <point x="165" y="564" type="line"/>
      <point x="168" y="569" type="line"/>
    </contour>
    <contour>
      <point x="270" y="569" type="line"/>
      <point x="270" y="566" type="line"/>
      <point x="268" y="566" type="line"/>
      <point x="268" y="569" type="line"/>
    </contour>
    <contour>
      <point x="332" y="569" type="line"/>
      <point x="332" y="566" type="line"/>
      <point x="329" y="566" type="line"/>
      <point x="329" y="569" type="line"/>
    </contour>
    <contour>
      <point x="129" y="557" type="line"/>
      <point x="129" y="554" type="line"/>
      <point x="126" y="554" type="line" name=".hr06"/>
      <point x="126" y="557" type="line"/>
    </contour>
    <contour>
      <point x="143" y="528" type="line"/>
      <point x="148" y="526" type="line"/>
      <point x="150" y="521" type="line"/>
      <point x="148" y="516" type="line"/>
      <point x="143" y="514" type="line"/>
      <point x="138" y="516" type="line"/>
      <point x="136" y="521" type="line"/>
      <point x="138" y="526" type="line"/>
    </contour>
    <contour>
      <point x="160" y="507" type="line"/>
      <point x="160" y="504" type="line"/>
      <point x="157" y="504" type="line"/>
      <point x="157" y="507" type="line"/>
    </contour>
    <contour>
      <point x="178" y="501" type="line"/>
      <point x="178" y="498" type="line"/>
      <point x="175" y="498" type="line"/>
      <point x="175" y="501" type="line"/>
    </contour>
    <contour>
      <point x="135" y="489" type="line"/>
      <point x="135" y="486" type="line"/>
      <point x="132" y="486" type="line"/>
      <point x="132" y="489" type="line"/>
    </contour>
    <contour>
      <point x="148" y="476" type="line"/>
      <point x="151" y="472" type="line"/>
      <point x="148" y="468" type="line"/>
      <point x="143" y="468" type="line"/>
      <point x="141" y="472" type="line"/>
      <point x="143" y="476" type="line"/>
    </contour>
    <contour>
      <point x="172" y="470" type="line"/>
      <point x="172" y="467" type="line"/>
      <point x="169" y="467" type="line"/>
      <point x="169" y="470" type="line"/>
    </contour>
    <contour>
      <point x="143" y="394" type="line"/>
      <point x="147" y="391" type="line"/>
      <point x="147" y="386" type="line"/>
      <point x="143" y="384" type="line"/>
      <point x="138" y="386" type="line"/>
      <point x="138" y="391" type="line"/>
    </contour>
    <contour>
      <point x="172" y="384" type="line"/>
      <point x="172" y="381" type="line"/>
      <point x="169" y="381" type="line"/>
      <point x="169" y="384" type="line"/>
    </contour>
    <contour>
      <point x="167" y="271" type="line"/>
      <point x="172" y="268" type="line"/>
      <point x="172" y="263" type="line"/>
      <point x="167" y="261" type="line"/>
      <point x="163" y="263" type="line"/>
      <point x="163" y="268" type="line"/>
    </contour>
    <contour>
      <point x="135" y="181" type="line"/>
      <point x="135" y="178" type="line"/>
      <point x="132" y="178" type="line"/>
      <point x="132" y="181" type="line"/>
    </contour>
    <contour>
      <point x="147" y="150" type="line"/>
      <point x="147" y="147" type="line"/>
      <point x="144" y="147" type="line"/>
      <point x="144" y="150" type="line"/>
    </contour>
  </outline>
</glyph>
<glyph name="G" format="2">
  <advance width="565"/>
  <unicode hex="0047"/>
  <outline>
    <contour>
      <point x="30" y="0" type="line" name=".hr02"/>
      <point x="201" y="0"/>
      <point x="369" y="-2"/>
      <point x="540" y="1" type="curve"/>
      <point x="544" y="141"/>
      <point x="540" y="278"/>
      <point x="541" y="418" type="curve"/>
      <point x="463" y="419"/>
      <point x="385" y="419"/>
      <point x="307" y="418" type="curve"/>
      <point x="306" y="371"/>
      <point x="306" y="326"/>
      <point x="309" y="279" type="curve"/>
      <point x="357" y="276" type="line"/>
      <point x="354" y="236" type="line"/>
      <point x="325" y="229"/>
      <point x="294" y="235" name=".hr01"/>
      <point x="265" y="234" type="curve"/>
      <point x="262" y="310"/>
      <point x="263" y="385"/>
      <point x="264" y="461" type="curve"/>
      <point x="356" y="464"/>
      <point x="448" y="459"/>
      <point x="540" y="463" type="curve"/>
      <point x="544" y="540"/>
      <point x="541" y="618"/>
      <point x="541" y="695" type="curve"/>
      <point x="370" y="696"/>
      <point x="200" y="696"/>
      <point x="30" y="695" type="curve"/>
    </contour>
    <contour>
      <point x="268" y="595" type="line"/>
      <point x="268" y="592" type="line"/>
      <point x="266" y="592" type="line"/>
      <point x="266" y="595" type="line"/>
    </contour>
    <contour>
      <point x="305" y="589" type="line"/>
      <point x="305" y="586" type="line"/>
      <point x="302" y="586" type="line"/>
      <point x="302" y="589" type="line"/>
    </contour>
    <contour>
      <point x="203" y="584" type="curve"/>
      <point x="212" y="586"/>
      <point x="215" y="583"/>
      <point x="212" y="575" type="curve"/>
      <point x="203" y="572"/>
      <point x="200" y="575"/>
    </contour>
    <contour>
      <point x="275" y="577" type="line"/>
      <point x="275" y="574" type="line"/>
      <point x="272" y="574" type="line"/>
      <point x="272" y="577" type="line"/>
    </contour>
    <contour>
      <point x="244" y="564" type="line"/>
      <point x="244" y="562" type="line"/>
      <point x="241" y="562" type="line"/>
      <point x="241" y="564" type="line"/>
    </contour>
    <contour>
      <point x="164" y="540" type="line"/>
      <point x="164" y="537" type="line"/>
      <point x="161" y="537" type="line"/>
      <point x="161" y="540" type="line"/>
    </contour>
    <contour>
      <point x="178" y="538" type="curve"/>
      <point x="186" y="545"/>
      <point x="196" y="532"/>
      <point x="188" y="525" type="curve" smooth="yes"/>
      <point x="180" y="518"/>
      <point x="170" y="533"/>
    </contour>
    <contour>
      <point x="201" y="528" type="line"/>
      <point x="201" y="525" type="line"/>
      <point x="198" y="525" type="line"/>
      <point x="198" y="528" type="line"/>
    </contour>
    <contour>
      <point x="145" y="509" type="line"/>
      <point x="145" y="506" type="line"/>
      <point x="142" y="506" type="line"/>
      <point x="142" y="509" type="line"/>
    </contour>
    <contour>
      <point x="133" y="497" type="line"/>
      <point x="133" y="494" type="line"/>
      <point x="130" y="494" type="line"/>
      <point x="130" y="497" type="line"/>
    </contour>
    <contour>
      <point x="170" y="435" type="line" name=".hr03"/>
      <point x="170" y="432" type="line"/>
      <point x="167" y="432" type="line"/>
      <point x="167" y="435" type="line"/>
    </contour>
    <contour>
      <point x="145" y="429" type="line"/>
      <point x="145" y="426" type="line"/>
      <point x="142" y="426" type="line"/>
      <point x="142" y="429" type="line"/>
    </contour>
    <contour>
      <point x="127" y="423" type="line"/>
      <point x="127" y="420" type="line"/>
      <point x="124" y="420" type="line"/>
      <point x="124" y="423" type="line"/>
    </contour>
    <contour>
      <point x="121" y="404" type="line" name=".hr04"/>
      <point x="121" y="401" type="line"/>
      <point x="118" y="401" type="line" name=".hr05"/>
      <point x="118" y="404" type="line"/>
    </contour>
    <contour>
      <point x="133" y="404" type="line"/>
      <point x="133" y="401" type="line"/>
      <point x="130" y="401" type="line"/>
      <point x="130" y="404" type="line"/>
    </contour>
    <contour>
      <point x="159" y="285" type="line"/>
      <point x="164" y="282" type="line"/>
      <point x="164" y="277" type="line"/>
      <point x="159" y="275" type="line"/>
      <point x="155" y="277" type="line" name=".hr06"/>
      <point x="155" y="282" type="line"/>
    </contour>
    <contour>
      <point x="160" y="251" type="curve"/>
      <point x="168" y="247"/>
      <point x="168" y="243"/>
      <point x="160" y="239" type="curve"/>
      <point x="152" y="243"/>
      <point x="152" y="247"/>
    </contour>
    <contour>
      <point x="164" y="207" type="line"/>
      <point x="164" y="204" type="line"/>
      <point x="161" y="204" type="line"/>
      <point x="161" y="207" type="line"/>
    </contour>
    <contour>
      <point x="151" y="201" type="line"/>
      <point x="151" y="198" type="line"/>
      <point x="148" y="198" type="line"/>
      <point x="148" y="201" type="line"/>
    </contour>
    <contour>
      <point x="127" y="189" type="line"/>
      <point x="127" y="186" type="line"/>
      <point x="124" y="186" type="line"/>
      <point x="124" y="189" type="line"/>
    </contour>
    <contour>
      <point x="188" y="183" type="line"/>
      <point x="188" y="180" type="line"/>
      <point x="185" y="180" type="line"/>
      <point x="185" y="183" type="line"/>
    </contour>
    <contour>
      <point x="128" y="168" type="line" name=".hr07"/>
      <point x="133" y="165" type="line"/>
      <point x="133" y="160" type="line"/>
      <point x="128" y="158" type="line"/>
      <point x="124" y="160" type="line"/>
      <point x="124" y="165" type="line"/>
    </contour>
    <contour>
      <point x="176" y="164" type="line"/>
      <point x="176" y="161" type="line"/>
      <point x="173" y="161" type="line"/>
      <point x="173" y="164" type="line"/>
    </contour>
    <contour>
      <point x="429" y="152" type="line"/>
      <point x="429" y="149" type="line"/>
      <point x="426" y="149" type="line"/>
      <point x="426" y="152" type="line"/>
    </contour>
    <contour>
      <point x="159" y="139" type="line"/>
      <point x="161" y="135" type="line"/>
      <point x="159" y="130" type="line"/>
      <point x="154" y="130" type="line"/>
      <point x="151" y="135" type="line"/>
      <point x="154" y="139" type="line" name=".hr08"/>
    </contour>
    <contour>
      <point x="250" y="139" type="line"/>
      <point x="250" y="137" type="line"/>
      <point x="247" y="137" type="line"/>
      <point x="247" y="139" type="line"/>
    </contour>
    <contour>
      <point x="225" y="133" type="line"/>
      <point x="225" y="130" type="line"/>
      <point x="222" y="130" type="line"/>
      <point x="222" y="133" type="line"/>
    </contour>
    <contour>
      <point x="216" y="120" type="line"/>
      <point x="229" y="131"/>
      <point x="229" y="100"/>
      <point x="216" y="108" type="curve"/>
      <point x="213" y="112" type="line"/>
    </contour>
    <contour>
      <point x="379" y="121" type="line"/>
      <point x="379" y="118" type="line"/>
      <point x="376" y="118" type="line"/>
      <point x="376" y="121" type="line"/>
    </contour>
    <contour>
      <point x="201" y="115" type="line"/>
      <point x="201" y="112" type="line"/>
      <point x="198" y="112" type="line"/>
      <point x="198" y="115" type="line" name=".hr09"/>
    </contour>
    <contour>
      <point x="324" y="115" type="line"/>
      <point x="324" y="112" type="line"/>
      <point x="321" y="112" type="line"/>
      <point x="321" y="115" type="line"/>
    </contour>
  </outline>
</glyph>
<glyph name="H" format="2">
  <advance width="565"/>
  <unicode hex="0048"/>
  <outline>
    <contour>
      <point x="27" y="699" type="curve"/>
      <point x="27" y="466"/>
      <point x="25" y="237"/>
      <point x="28" y="4" type="curve"/>
      <point x="105" y="0"/>
      <point x="183" y="3"/>
      <point x="260" y="3" type="curve"/>
      <point x="263" y="96"/>
      <point x="260" y="188"/>
      <point x="261" y="280" type="curve"/>
      <point x="310" y="280" type="line"/>
      <point x="311" y="188"/>
      <point x="309" y="95"/>
      <point x="310" y="3" type="curve"/>
      <point x="389" y="3"/>
      <point x="465" y="-1"/>
      <point x="544" y="6" type="curve"/>
      <point x="537" y="42"/>
      <point x="537" y="78"/>
      <point x="537" y="114" type="curve"/>
      <point x="538" y="310"/>
      <point x="538" y="503"/>
      <point x="538" y="699" type="curve"/>
      <point x="462" y="700"/>
      <point x="386" y="700"/>
      <point x="310" y="699" type="curve"/>
      <point x="307" y="610"/>
      <point x="312" y="520"/>
      <point x="309" y="431" type="curve"/>
      <point x="304" y="410"/>
      <point x="271" y="431"/>
      <point x="261" y="421" type="curve"/>
      <point x="260" y="514"/>
      <point x="261" y="606"/>
      <point x="260" y="699" type="curve"/>
      <point x="182" y="700"/>
      <point x="104" y="700"/>
    </contour>
    <contour>
      <point x="154" y="562" type="line"/>
      <point x="154" y="559" type="line" name=".hr01"/>
      <point x="151" y="559" type="line"/>
      <point x="151" y="562" type="line"/>
    </contour>
    <contour>
      <point x="142" y="513" type="line"/>
      <point x="142" y="510" type="line" name=".hr02"/>
      <point x="139" y="510" type="line"/>
      <point x="139" y="513" type="line"/>
    </contour>
    <contour>
      <point x="407" y="494" type="line"/>
      <point x="407" y="491" type="line" name=".hr03"/>
      <point x="404" y="491" type="line"/>
      <point x="404" y="494" type="line"/>
    </contour>
    <contour>
      <point x="413" y="451" type="line"/>
      <point x="413" y="448" type="line"/>
      <point x="410" y="448" type="line"/>
      <point x="410" y="451" type="line"/>
    </contour>
    <contour>
      <point x="407" y="433" type="line"/>
      <point x="407" y="430" type="line"/>
      <point x="404" y="430" type="line"/>
      <point x="404" y="433" type="line"/>
    </contour>
    <contour>
      <point x="131" y="418" type="line"/>
      <point x="136" y="415" type="line"/>
      <point x="136" y="410" type="line"/>
      <point x="131" y="408" type="line"/>
      <point x="127" y="410" type="line"/>
      <point x="127" y="415" type="line"/>
    </contour>
    <contour>
      <point x="438" y="414" type="line"/>
      <point x="438" y="411" type="line"/>
      <point x="435" y="411" type="line"/>
      <point x="435" y="414" type="line"/>
    </contour>
    <contour>
      <point x="160" y="408" type="line"/>
      <point x="160" y="405" type="line"/>
      <point x="157" y="405" type="line"/>
      <point x="157" y="408" type="line"/>
    </contour>
    <contour>
      <point x="419" y="396" type="line"/>
      <point x="419" y="393" type="line"/>
      <point x="416" y="393" type="line"/>
      <point x="416" y="396" type="line"/>
    </contour>
    <contour>
      <point x="394" y="371" type="line"/>
      <point x="394" y="368" type="line"/>
      <point x="392" y="368" type="line"/>
      <point x="392" y="371" type="line"/>
    </contour>
    <contour>
      <point x="191" y="359" type="line"/>
      <point x="191" y="356" type="line" name=".hr04"/>
      <point x="188" y="356" type="line"/>
      <point x="188" y="359" type="line"/>
    </contour>
    <contour>
      <point x="401" y="359" type="line"/>
      <point x="401" y="356" type="line"/>
      <point x="398" y="356" type="line"/>
      <point x="398" y="359" type="line"/>
    </contour>
    <contour>
      <point x="425" y="359" type="line"/>
      <point x="425" y="356" type="line"/>
      <point x="422" y="356" type="line"/>
      <point x="422" y="359" type="line"/>
    </contour>
    <contour>
      <point x="203" y="352" type="line"/>
      <point x="203" y="350" type="line"/>
      <point x="201" y="350" type="line"/>
      <point x="201" y="352" type="line"/>
    </contour>
    <contour>
      <point x="419" y="346" type="line"/>
      <point x="419" y="343" type="line"/>
      <point x="416" y="343" type="line"/>
      <point x="416" y="346" type="line"/>
    </contour>
    <contour>
      <point x="142" y="340" type="line"/>
      <point x="142" y="337" type="line"/>
      <point x="139" y="337" type="line"/>
      <point x="139" y="340" type="line"/>
    </contour>
    <contour>
      <point x="376" y="340" type="line"/>
      <point x="376" y="337" type="line"/>
      <point x="373" y="337" type="line"/>
      <point x="373" y="340" type="line"/>
    </contour>
    <contour>
      <point x="450" y="340" type="line"/>
      <point x="450" y="337" type="line"/>
      <point x="447" y="337" type="line"/>
      <point x="447" y="340" type="line"/>
    </contour>
    <contour>
      <point x="394" y="334" type="line"/>
      <point x="394" y="331" type="line"/>
      <point x="392" y="331" type="line" name=".hr05"/>
      <point x="392" y="334" type="line"/>
    </contour>
    <contour>
      <point x="394" y="315" type="line"/>
      <point x="394" y="313" type="line"/>
      <point x="392" y="313" type="line"/>
      <point x="392" y="315" type="line"/>
    </contour>
    <contour>
      <point x="148" y="297" type="line"/>
      <point x="148" y="294" type="line"/>
      <point x="145" y="294" type="line"/>
      <point x="145" y="297" type="line"/>
    </contour>
    <contour>
      <point x="136" y="260" type="line"/>
      <point x="136" y="257" type="line"/>
      <point x="133" y="257" type="line"/>
      <point x="133" y="260" type="line"/>
    </contour>
    <contour>
      <point x="403" y="255" type="curve"/>
      <point x="411" y="251"/>
      <point x="411" y="247"/>
      <point x="403" y="242" type="curve"/>
      <point x="394" y="246"/>
      <point x="394" y="250"/>
    </contour>
    <contour>
      <point x="450" y="242" type="line"/>
      <point x="450" y="239" type="line"/>
      <point x="447" y="239" type="line"/>
      <point x="447" y="242" type="line"/>
    </contour>
    <contour>
      <point x="136" y="205" type="line"/>
      <point x="136" y="202" type="line"/>
      <point x="133" y="202" type="line"/>
      <point x="133" y="205" type="line"/>
    </contour>
  </outline>
</glyph>
<glyph name="I" format="2">
  <advance width="287"/>
  <unicode hex="0049"/>
  <outline>
    <contour>
      <point x="25" y="703" type="curve"/>
      <point x="24" y="511"/>
      <point x="26" y="322"/>
      <point x="25" y="130" type="curve"/>
      <point x="25" y="87"/>
      <point x="22" y="47"/>
      <point x="27" y="4" type="curve"/>
      <point x="39" y="1" type="line"/>
      <point x="112" y="-2"/>
      <point x="185" y="1"/>
      <point x="257" y="2" type="curve"/>
      <point x="261" y="51"/>
      <point x="259" y="100"/>
      <point x="259" y="149" type="curve" smooth="yes"/>
      <point x="259" y="336"/>
      <point x="260" y="516"/>
      <point x="259" y="703" type="curve"/>
      <point x="181" y="704"/>
      <point x="103" y="704"/>
    </contour>
    <contour>
      <point x="171" y="474" type="line"/>
      <point x="171" y="471" type="line"/>
      <point x="168" y="471" type="line"/>
      <point x="168" y="474" type="line"/>
    </contour>
    <contour>
      <point x="159" y="443" type="line"/>
      <point x="159" y="440" type="line"/>
      <point x="156" y="440" type="line"/>
      <point x="156" y="443" type="line"/>
    </contour>
    <contour>
      <point x="154" y="430" type="line"/>
      <point x="156" y="426" type="line"/>
      <point x="154" y="422" type="line"/>
      <point x="149" y="422" type="line"/>
      <point x="146" y="426" type="line"/>
      <point x="149" y="430" type="line"/>
    </contour>
    <contour>
      <point x="128" y="381" type="line"/>
      <point x="128" y="378" type="line"/>
      <point x="125" y="378" type="line"/>
      <point x="125" y="381" type="line"/>
    </contour>
    <contour>
      <point x="134" y="227" type="line"/>
      <point x="134" y="224" type="line"/>
      <point x="131" y="224" type="line"/>
      <point x="131" y="227" type="line"/>
    </contour>
  </outline>
</glyph>
<glyph name="J" format="2">
  <advance width="565"/>
  <unicode hex="004A"/>
  <outline>
    <contour>
      <point x="303" y="699" type="curve"/>
      <point x="302" y="544"/>
      <point x="303" y="392"/>
      <point x="303" y="237" type="curve"/>
      <point x="292" y="238"/>
      <point x="270" y="238"/>
      <point x="259" y="238" type="curve"/>
      <point x="260" y="299"/>
      <point x="259" y="361"/>
      <point x="259" y="422" type="curve"/>
      <point x="181" y="423"/>
      <point x="103" y="423"/>
      <point x="26" y="422" type="curve"/>
      <point x="26" y="282"/>
      <point x="23" y="145"/>
      <point x="27" y="5" type="curve"/>
      <point x="198" y="1"/>
      <point x="366" y="4"/>
      <point x="537" y="3" type="curve"/>
      <point x="537" y="699" type="line"/>
      <point x="459" y="700"/>
      <point x="381" y="700"/>
    </contour>
    <contour>
      <point x="418" y="501" type="line"/>
      <point x="418" y="498" type="line"/>
      <point x="415" y="498" type="line"/>
      <point x="415" y="501" type="line"/>
    </contour>
    <contour>
      <point x="418" y="433" type="line"/>
      <point x="418" y="430" type="line"/>
      <point x="415" y="430" type="line" name=".hr01"/>
      <point x="415" y="433" type="line"/>
    </contour>
    <contour>
      <point x="397" y="378" type="curve"/>
      <point x="406" y="381"/>
      <point x="409" y="378"/>
      <point x="406" y="369" type="curve"/>
      <point x="398" y="367"/>
      <point x="395" y="370"/>
    </contour>
    <contour>
      <point x="418" y="341" type="line"/>
      <point x="418" y="338" type="line"/>
      <point x="415" y="338" type="line"/>
      <point x="415" y="341" type="line"/>
    </contour>
    <contour>
      <point x="172" y="273" type="line"/>
      <point x="172" y="270" type="line"/>
      <point x="169" y="270" type="line" name=".hr02"/>
      <point x="169" y="273" type="line"/>
    </contour>
    <contour>
      <point x="122" y="254" type="line"/>
      <point x="122" y="251" type="line"/>
      <point x="119" y="251" type="line"/>
      <point x="119" y="254" type="line"/>
    </contour>
    <contour>
      <point x="153" y="205" type="line"/>
      <point x="153" y="202" type="line"/>
      <point x="150" y="202" type="line"/>
      <point x="150" y="205" type="line"/>
    </contour>
    <contour>
      <point x="168" y="204" type="curve"/>
      <point x="177" y="207"/>
      <point x="180" y="204"/>
      <point x="177" y="195" type="curve"/>
      <point x="168" y="193"/>
      <point x="165" y="196"/>
    </contour>
    <contour>
      <point x="414" y="204" type="curve"/>
      <point x="423" y="207"/>
      <point x="426" y="204"/>
      <point x="423" y="195" type="curve"/>
      <point x="415" y="193"/>
      <point x="412" y="196"/>
    </contour>
    <contour>
      <point x="389" y="202" type="line"/>
      <point x="393" y="200" type="line"/>
      <point x="393" y="195" type="line"/>
      <point x="389" y="192" type="line"/>
      <point x="384" y="195" type="line"/>
      <point x="384" y="200" type="line"/>
    </contour>
    <contour>
      <point x="149" y="196" type="line"/>
      <point x="153" y="194" type="line"/>
      <point x="153" y="189" type="line"/>
      <point x="149" y="186" type="line"/>
      <point x="144" y="189" type="line"/>
      <point x="144" y="194" type="line"/>
    </contour>
    <contour>
      <point x="174" y="174" type="curve" smooth="yes"/>
      <point x="183" y="174"/>
      <point x="181" y="159"/>
      <point x="173" y="159" type="curve" smooth="yes"/>
      <point x="162" y="159" name=".hr03"/>
      <point x="165" y="174"/>
    </contour>
    <contour>
      <point x="128" y="168" type="line"/>
      <point x="128" y="165" type="line"/>
      <point x="126" y="165" type="line"/>
      <point x="126" y="168" type="line"/>
    </contour>
    <contour>
      <point x="197" y="168" type="line"/>
      <point x="200" y="164" type="line"/>
      <point x="197" y="159" type="line" name=".hr04"/>
      <point x="192" y="159" type="line"/>
      <point x="190" y="164" type="line"/>
      <point x="192" y="168" type="line"/>
    </contour>
    <contour>
      <point x="361" y="169" type="curve"/>
      <point x="368" y="175" name=".hr05"/>
      <point x="372" y="173"/>
      <point x="373" y="164" type="curve"/>
      <point x="366" y="159"/>
      <point x="362" y="160"/>
    </contour>
    <contour>
      <point x="424" y="168" type="line"/>
      <point x="424" y="165" type="line"/>
      <point x="421" y="165" type="line"/>
      <point x="421" y="168" type="line"/>
    </contour>
    <contour>
      <point x="444" y="162" type="line"/>
      <point x="446" y="157" type="line"/>
      <point x="444" y="153" type="line"/>
      <point x="439" y="153" type="line" name=".hr06"/>
      <point x="436" y="157" type="line"/>
      <point x="439" y="162" type="line"/>
    </contour>
    <contour>
      <point x="222" y="156" type="line"/>
      <point x="225" y="151" type="line"/>
      <point x="222" y="147" type="line"/>
      <point x="217" y="147" type="line"/>
      <point x="214" y="151" type="line"/>
      <point x="217" y="156" type="line"/>
    </contour>
    <contour>
      <point x="332" y="156" type="line"/>
      <point x="332" y="153" type="line"/>
      <point x="329" y="153" type="line"/>
      <point x="329" y="156" type="line"/>
    </contour>
    <contour>
      <point x="202" y="150" type="line"/>
      <point x="202" y="147" type="line"/>
      <point x="200" y="147" type="line"/>
      <point x="200" y="150" type="line"/>
    </contour>
    <contour>
      <point x="270" y="150" type="line"/>
      <point x="270" y="147" type="line"/>
      <point x="267" y="147" type="line" name=".hr07"/>
      <point x="267" y="150" type="line"/>
    </contour>
    <contour>
      <point x="425" y="149" type="line"/>
      <point x="428" y="145" type="line"/>
      <point x="425" y="141" type="line"/>
      <point x="420" y="141" type="line"/>
      <point x="418" y="145" type="line"/>
      <point x="420" y="149" type="line"/>
    </contour>
    <contour>
      <point x="246" y="143" type="line" name=".hr08"/>
      <point x="246" y="141" type="line"/>
      <point x="243" y="141" type="line"/>
      <point x="243" y="143" type="line"/>
    </contour>
    <contour>
      <point x="178" y="137" type="line"/>
      <point x="178" y="134" type="line"/>
      <point x="175" y="134" type="line"/>
      <point x="175" y="137" type="line"/>
    </contour>
    <contour>
      <point x="222" y="131" type="line"/>
      <point x="225" y="127" type="line"/>
      <point x="222" y="122" type="line" name=".hr09"/>
      <point x="217" y="122" type="line"/>
      <point x="214" y="127" type="line"/>
      <point x="217" y="131" type="line"/>
    </contour>
    <contour>
      <point x="290" y="131" type="line" name=".hr10"/>
      <point x="292" y="127" type="line"/>
      <point x="290" y="122" type="line"/>
      <point x="285" y="122" type="line"/>
      <point x="282" y="127" type="line"/>
      <point x="285" y="131" type="line"/>
    </contour>
    <contour>
      <point x="356" y="131" type="line"/>
      <point x="356" y="128" type="line"/>
      <point x="354" y="128" type="line"/>
      <point x="354" y="131" type="line"/>
    </contour>
    <contour>
      <point x="240" y="119" type="line"/>
      <point x="243" y="114" type="line"/>
      <point x="240" y="110" type="line"/>
      <point x="235" y="110" type="line"/>
      <point x="233" y="114" type="line"/>
      <point x="235" y="119" type="line"/>
    </contour>
    <contour>
      <point x="338" y="119" type="line"/>
      <point x="338" y="116" type="line"/>
      <point x="335" y="116" type="line"/>
      <point x="335" y="119" type="line"/>
    </contour>
    <contour>
      <point x="172" y="113" type="line"/>
      <point x="172" y="110" type="line"/>
      <point x="169" y="110" type="line"/>
      <point x="169" y="113" type="line"/>
    </contour>
    <contour>
      <point x="387" y="113" type="line"/>
      <point x="387" y="110" type="line"/>
      <point x="384" y="110" type="line"/>
      <point x="384" y="113" type="line"/>
    </contour>
    <contour>
      <point x="375" y="106" type="line"/>
      <point x="375" y="104" type="line"/>
      <point x="372" y="104" type="line"/>
      <point x="372" y="106" type="line"/>
    </contour>
  </outline>
</glyph>
<glyph name="K" format="2">
  <advance width="611"/>
  <unicode hex="004B"/>
  <outline>
    <contour>
      <point x="439" y="337" type="curve" smooth="yes"/>
      <point x="436" y="345"/>
      <point x="431" y="354"/>
      <point x="436" y="363" type="curve"/>
      <point x="487" y="476"/>
      <point x="541" y="586"/>
      <point x="592" y="699" type="curve"/>
      <point x="505" y="699"/>
      <point x="422" y="700"/>
      <point x="335" y="699" type="curve"/>
      <point x="308" y="644"/>
      <point x="286" y="588"/>
      <point x="257" y="535" type="curve" name=".hr01"/>
      <point x="254" y="591"/>
      <point x="263" y="643"/>
      <point x="259" y="698" type="curve"/>
      <point x="180" y="701"/>
      <point x="104" y="699"/>
      <point x="25" y="699" type="curve"/>
      <point x="25" y="466"/>
      <point x="25" y="236"/>
      <point x="26" y="3" type="curve"/>
      <point x="103" y="3"/>
      <point x="181" y="1" name=".hr02"/>
      <point x="258" y="5" type="curve"/>
      <point x="265" y="61"/>
      <point x="252" y="117"/>
      <point x="256" y="173" type="curve"/>
      <point x="279" y="129"/>
      <point x="298" y="84"/>
      <point x="319" y="40" type="curve" smooth="yes"/>
      <point x="326" y="27"/>
      <point x="331" y="12"/>
      <point x="343" y="3" type="curve"/>
      <point x="426" y="2"/>
      <point x="509" y="2"/>
      <point x="593" y="3" type="curve"/>
      <point x="546" y="116"/>
      <point x="490" y="224"/>
    </contour>
    <contour>
      <point x="310" y="457" type="line"/>
      <point x="313" y="457" type="line"/>
      <point x="313" y="454" type="line"/>
      <point x="310" y="454" type="line"/>
    </contour>
    <contour>
      <point x="332" y="362" type="line"/>
      <point x="329" y="362" type="line"/>
      <point x="329" y="365" type="line"/>
      <point x="332" y="365" type="line"/>
    </contour>
    <contour>
      <point x="310" y="383" type="line"/>
      <point x="313" y="383" type="line"/>
      <point x="313" y="380" type="line"/>
      <point x="310" y="380" type="line" name=".hr03"/>
    </contour>
    <contour>
      <point x="313" y="371" type="line"/>
      <point x="313" y="369" type="line"/>
      <point x="310" y="371" type="line"/>
    </contour>
    <contour>
      <point x="153" y="322" type="line"/>
      <point x="153" y="319" type="line"/>
      <point x="150" y="319" type="line"/>
      <point x="150" y="322" type="line"/>
    </contour>
    <contour>
      <point x="147" y="383" type="line"/>
      <point x="147" y="380" type="line" name=".hr04"/>
      <point x="144" y="380" type="line"/>
      <point x="144" y="383" type="line"/>
    </contour>
    <contour>
      <point x="188" y="314" type="line"/>
      <point x="187" y="313"/>
      <point x="186" y="313"/>
      <point x="185" y="313" type="curve"/>
      <point x="177" y="313"/>
      <point x="177" y="323"/>
      <point x="182" y="326" type="curve"/>
    </contour>
    <contour>
      <point x="286" y="399" type="line"/>
      <point x="286" y="402" type="line"/>
      <point x="288" y="402" type="line"/>
      <point x="288" y="399" type="line"/>
    </contour>
    <contour>
      <point x="304" y="445" type="line"/>
      <point x="307" y="445" type="line"/>
      <point x="307" y="442" type="line"/>
      <point x="304" y="442" type="line"/>
    </contour>
    <contour>
      <point x="304" y="420" type="line"/>
      <point x="307" y="420" type="line"/>
      <point x="307" y="417" type="line"/>
      <point x="304" y="417" type="line" name=".hr05"/>
    </contour>
    <contour>
      <point x="286" y="432" type="line"/>
      <point x="288" y="432" type="line"/>
      <point x="288" y="430" type="line"/>
      <point x="286" y="430" type="line"/>
    </contour>
    <contour>
      <point x="279" y="421" type="curve"/>
      <point x="287" y="424"/>
      <point x="290" y="421"/>
      <point x="288" y="412" type="curve"/>
      <point x="279" y="409" name=".hr06"/>
      <point x="276" y="412"/>
    </contour>
    <contour>
      <point x="261" y="420" type="line"/>
      <point x="264" y="420" type="line"/>
      <point x="264" y="417" type="line"/>
      <point x="261" y="417" type="line"/>
    </contour>
    <contour>
      <point x="260" y="396" type="curve" name=".hr07"/>
      <point x="255" y="399"/>
      <point x="250" y="402"/>
      <point x="243" y="405" type="curve"/>
      <point x="254" y="411" type="line" name=".hr08"/>
      <point x="257" y="406" name=".hr09"/>
      <point x="259" y="401"/>
    </contour>
    <contour>
      <point x="236" y="423" type="line" name=".hr10"/>
      <point x="236" y="426" type="line"/>
      <point x="239" y="426" type="line"/>
      <point x="239" y="423" type="line"/>
    </contour>
    <contour>
      <point x="242" y="446" type="curve"/>
      <point x="251" y="441"/>
      <point x="251" y="437"/>
      <point x="242" y="433" type="curve"/>
      <point x="233" y="437"/>
      <point x="233" y="441"/>
    </contour>
    <contour>
      <point x="217" y="430" type="curve" smooth="yes"/>
      <point x="225" y="435"/>
      <point x="232" y="422"/>
      <point x="225" y="417" type="curve"/>
      <point x="224" y="417" type="line" name=".hr11"/>
      <point x="222" y="418"/>
      <point x="219" y="419"/>
      <point x="215" y="422" type="curve"/>
      <point x="214" y="425"/>
      <point x="214" y="428"/>
    </contour>
    <contour>
      <point x="205" y="452" type="curve"/>
      <point x="213" y="454"/>
      <point x="216" y="451"/>
      <point x="214" y="443" type="curve"/>
      <point x="205" y="440"/>
      <point x="202" y="443"/>
    </contour>
    <contour>
      <point x="196" y="448" type="line"/>
      <point x="193" y="448" type="line"/>
      <point x="193" y="451" type="line" name=".hr12"/>
      <point x="196" y="451" type="line"/>
    </contour>
    <contour>
      <point x="182" y="470" type="curve"/>
      <point x="189" y="477"/>
      <point x="200" y="467"/>
      <point x="195" y="460" type="curve"/>
      <point x="188" y="453"/>
      <point x="177" y="462"/>
    </contour>
    <contour>
      <point x="181" y="451" type="line"/>
      <point x="184" y="451" type="line"/>
      <point x="184" y="448" type="line"/>
      <point x="181" y="448" type="line"/>
    </contour>
    <contour>
      <point x="164" y="457" type="line" name=".hr13"/>
      <point x="168" y="457" type="line"/>
      <point x="172" y="456"/>
      <point x="174" y="453"/>
      <point x="174" y="449" type="curve"/>
    </contour>
    <contour>
      <point x="162" y="519" type="line"/>
      <point x="165" y="519" type="line"/>
      <point x="165" y="516" type="line"/>
      <point x="162" y="516" type="line"/>
    </contour>
    <contour>
      <point x="162" y="495" type="curve" smooth="yes"/>
      <point x="170" y="498"/>
      <point x="177" y="485"/>
      <point x="166" y="482" type="curve"/>
      <point x="157" y="478" name=".hr14"/>
      <point x="151" y="492"/>
    </contour>
    <contour>
      <point x="113" y="262" type="line"/>
      <point x="113" y="267" type="line"/>
      <point x="118" y="270" type="line"/>
      <point x="122" y="267" type="line"/>
      <point x="122" y="262" type="line"/>
      <point x="118" y="260" type="line"/>
    </contour>
    <contour>
      <point x="122" y="226" type="line"/>
      <point x="119" y="226" type="line"/>
      <point x="119" y="229" type="line"/>
      <point x="122" y="229" type="line"/>
    </contour>
    <contour>
      <point x="122" y="239" type="line"/>
      <point x="119" y="239" type="line"/>
      <point x="119" y="242" type="line"/>
      <point x="122" y="242" type="line"/>
    </contour>
    <contour>
      <point x="122" y="350" type="line"/>
      <point x="119" y="350" type="line"/>
      <point x="119" y="352" type="line"/>
      <point x="122" y="352" type="line"/>
    </contour>
    <contour>
      <point x="122" y="436" type="line"/>
      <point x="119" y="436" type="line"/>
      <point x="119" y="439" type="line"/>
      <point x="122" y="439" type="line"/>
    </contour>
    <contour>
      <point x="138" y="408" type="line"/>
      <point x="139" y="408" type="line"/>
      <point x="139" y="407"/>
      <point x="140" y="406"/>
      <point x="140" y="405" type="curve"/>
      <point x="138" y="405" type="line"/>
    </contour>
    <contour>
      <point x="147" y="194" type="line"/>
      <point x="142" y="192" type="line"/>
      <point x="138" y="194" type="line"/>
      <point x="138" y="199" type="line"/>
      <point x="142" y="202" type="line"/>
      <point x="147" y="199" type="line"/>
    </contour>
    <contour>
      <point x="147" y="239" type="line"/>
      <point x="144" y="239" type="line"/>
      <point x="144" y="242" type="line" name=".hr15"/>
      <point x="147" y="242" type="line"/>
    </contour>
    <contour>
      <point x="145" y="285" type="curve"/>
      <point x="153" y="288"/>
      <point x="156" y="285"/>
      <point x="154" y="276" type="curve"/>
      <point x="145" y="274"/>
      <point x="142" y="277"/>
    </contour>
    <contour>
      <point x="159" y="152" type="line"/>
      <point x="156" y="152" type="line"/>
      <point x="156" y="155" type="line"/>
      <point x="159" y="155" type="line" name=".hr16"/>
    </contour>
    <contour>
      <point x="165" y="140" type="line" name=".hr17"/>
      <point x="162" y="140" type="line" name=".hr18"/>
      <point x="162" y="143" type="line"/>
      <point x="165" y="143" type="line"/>
    </contour>
    <contour>
      <point x="164" y="227" type="curve" name=".hr19"/>
      <point x="155" y="224"/>
      <point x="153" y="227"/>
      <point x="156" y="236" type="curve"/>
      <point x="165" y="239"/>
      <point x="167" y="236"/>
    </contour>
    <contour>
      <point x="162" y="325" type="line" name=".hr20"/>
      <point x="162" y="328" type="line"/>
      <point x="165" y="328" type="line"/>
      <point x="165" y="325" type="line"/>
    </contour>
    <contour>
      <point x="157" y="350" type="curve" smooth="yes"/>
      <point x="158" y="353"/>
      <point x="162" y="355" name=".hr21"/>
      <point x="168" y="355" type="curve" name=".hr22"/>
      <point x="171" y="351" name=".hr23"/>
      <point x="172" y="346"/>
      <point x="175" y="342" type="curve"/>
      <point x="167" y="338"/>
      <point x="154" y="341"/>
    </contour>
    <contour>
      <point x="171" y="202" type="line"/>
      <point x="169" y="202" type="line"/>
      <point x="169" y="205" type="line"/>
      <point x="171" y="205" type="line"/>
    </contour>
    <contour>
      <point x="171" y="220" type="line"/>
      <point x="169" y="220" type="line" name=".hr24"/>
      <point x="169" y="223" type="line"/>
      <point x="171" y="223" type="line"/>
    </contour>
    <contour>
      <point x="188" y="265" type="curve"/>
      <point x="179" y="262"/>
      <point x="176" y="265"/>
      <point x="179" y="274" type="curve"/>
      <point x="160" y="271"/>
      <point x="177" y="298"/>
      <point x="188" y="290" type="curve"/>
      <point x="192" y="283"/>
      <point x="186" y="277"/>
      <point x="179" y="274" type="curve"/>
      <point x="188" y="277"/>
      <point x="191" y="274"/>
    </contour>
    <contour>
      <point x="190" y="300" type="line" name=".hr25"/>
      <point x="187" y="300" type="line"/>
      <point x="187" y="303" type="line"/>
      <point x="190" y="303" type="line"/>
    </contour>
    <contour>
      <point x="196" y="251" type="line"/>
      <point x="193" y="251" type="line"/>
      <point x="193" y="254" type="line"/>
      <point x="196" y="254" type="line"/>
    </contour>
    <contour>
      <point x="209" y="271" type="line"/>
      <point x="212" y="264" type="line"/>
      <point x="206" y="262" type="line"/>
    </contour>
    <contour>
      <point x="301" y="273" type="line"/>
      <point x="304" y="272"/>
      <point x="309" y="273"/>
      <point x="314" y="274" type="curve"/>
      <point x="320" y="269" type="line"/>
      <point x="320" y="258" name=".hr26"/>
      <point x="296" y="258"/>
      <point x="299" y="271" type="curve"/>
    </contour>
    <contour>
      <point x="324" y="378" type="curve"/>
      <point x="331" y="384"/>
      <point x="335" y="382"/>
      <point x="336" y="373" type="curve"/>
      <point x="329" y="368"/>
      <point x="325" y="369"/>
    </contour>
    <contour>
      <point x="338" y="417" type="line"/>
      <point x="335" y="417" type="line"/>
      <point x="335" y="420" type="line"/>
      <point x="338" y="420" type="line"/>
    </contour>
    <contour>
      <point x="338" y="467" type="line"/>
      <point x="335" y="467" type="line"/>
      <point x="335" y="469" type="line" name=".hr27"/>
      <point x="338" y="469" type="line"/>
    </contour>
    <contour>
      <point x="341" y="494" type="line" name=".hr28"/>
      <point x="344" y="494" type="line"/>
      <point x="344" y="491" type="line"/>
      <point x="341" y="491" type="line"/>
    </contour>
    <contour>
      <point x="344" y="405" type="line" name=".hr29"/>
      <point x="341" y="405" type="line"/>
      <point x="341" y="408" type="line" name=".hr30"/>
      <point x="344" y="408" type="line"/>
    </contour>
    <contour>
      <point x="344" y="477" type="line"/>
      <point x="346" y="482" type="line"/>
      <point x="351" y="482" type="line"/>
      <point x="354" y="477" type="line"/>
      <point x="351" y="473" type="line"/>
      <point x="346" y="473" type="line"/>
    </contour>
    <contour>
      <point x="347" y="445" type="line"/>
      <point x="350" y="445" type="line"/>
      <point x="350" y="442" type="line"/>
      <point x="347" y="442" type="line"/>
    </contour>
    <contour>
      <point x="362" y="196" type="line"/>
      <point x="360" y="196" type="line"/>
      <point x="360" y="198" type="line"/>
      <point x="362" y="198" type="line"/>
    </contour>
    <contour>
      <point x="361" y="232" type="curve"/>
      <point x="352" y="229"/>
      <point x="344" y="244"/>
      <point x="351" y="249" type="curve" smooth="yes"/>
      <point x="360" y="254"/>
      <point x="370" y="237"/>
    </contour>
    <contour>
      <point x="369" y="479" type="line"/>
      <point x="366" y="479" type="line"/>
      <point x="366" y="482" type="line"/>
      <point x="369" y="482" type="line"/>
    </contour>
    <contour>
      <point x="369" y="504" type="line"/>
      <point x="366" y="504" type="line"/>
      <point x="366" y="506" type="line"/>
      <point x="369" y="506" type="line"/>
    </contour>
    <contour>
      <point x="387" y="177" type="line"/>
      <point x="384" y="177" type="line"/>
      <point x="384" y="180" type="line"/>
      <point x="387" y="180" type="line"/>
    </contour>
    <contour>
      <point x="418" y="541" type="line"/>
      <point x="415" y="541" type="line"/>
      <point x="415" y="543" type="line"/>
      <point x="418" y="543" type="line"/>
    </contour>
  </outline>
</glyph>
<glyph name="M" format="2">
  <advance width="842"/>
  <unicode hex="004D"/>
  <outline>
    <contour>
      <point x="28" y="703" type="curve"/>
      <point x="23" y="615"/>
      <point x="29" y="527"/>
      <point x="26" y="439" type="curve"/>
      <point x="27" y="294" name=".hr01"/>
      <point x="24" y="150"/>
      <point x="28" y="3" type="curve" name=".hr02"/>
      <point x="105" y="-1"/>
      <point x="183" y="2"/>
      <point x="260" y="2" type="curve"/>
      <point x="261" y="159"/>
      <point x="260" y="313"/>
      <point x="260" y="470" type="curve"/>
      <point x="310" y="470" type="line"/>
      <point x="311" y="313"/>
      <point x="309" y="159"/>
      <point x="310" y="2" type="curve"/>
      <point x="386" y="2"/>
      <point x="459" y="-1"/>
      <point x="535" y="2" type="curve"/>
      <point x="544" y="10" type="line"/>
      <point x="545" y="163"/>
      <point x="543" y="317"/>
      <point x="544" y="470" type="curve"/>
      <point x="587" y="470" type="line"/>
      <point x="588" y="313"/>
      <point x="586" y="159"/>
      <point x="587" y="2" type="curve"/>
      <point x="666" y="1"/>
      <point x="742" y="0"/>
      <point x="819" y="3" type="curve"/>
      <point x="823" y="52"/>
      <point x="821" y="101"/>
      <point x="821" y="149" type="curve" smooth="yes"/>
      <point x="821" y="336"/>
      <point x="822" y="517"/>
      <point x="821" y="704" type="curve" name=".hr03"/>
      <point x="556" y="703"/>
      <point x="293" y="706"/>
    </contour>
    <contour>
      <point x="320" y="616" type="line"/>
      <point x="320" y="613" type="line"/>
      <point x="318" y="613" type="line"/>
      <point x="318" y="616" type="line"/>
    </contour>
    <contour>
      <point x="370" y="616" type="line"/>
      <point x="370" y="613" type="line"/>
      <point x="367" y="613" type="line"/>
      <point x="367" y="616" type="line"/>
    </contour>
    <contour>
      <point x="516" y="611" type="curve"/>
      <point x="521" y="616"/>
      <point x="534" y="612"/>
      <point x="531" y="603" type="curve"/>
      <point x="526" y="593"/>
      <point x="508" y="600"/>
    </contour>
    <contour>
      <point x="561" y="610" type="line"/>
      <point x="561" y="607" type="line"/>
      <point x="558" y="607" type="line" name=".hr04"/>
      <point x="558" y="610" type="line"/>
    </contour>
    <contour>
      <point x="339" y="604" type="line"/>
      <point x="339" y="601" type="line"/>
      <point x="336" y="601" type="line" name=".hr05"/>
      <point x="336" y="604" type="line"/>
    </contour>
    <contour>
      <point x="277" y="598" type="line"/>
      <point x="277" y="595" type="line"/>
      <point x="274" y="595" type="line"/>
      <point x="274" y="598" type="line"/>
    </contour>
    <contour>
      <point x="474" y="598" type="line"/>
      <point x="474" y="595" type="line"/>
      <point x="472" y="595" type="line"/>
      <point x="472" y="598" type="line"/>
    </contour>
    <contour>
      <point x="564" y="597" type="curve"/>
      <point x="576" y="588"/>
      <point x="547" y="575"/>
      <point x="545" y="587" type="curve"/>
      <point x="548" y="595"/>
      <point x="556" y="598"/>
    </contour>
    <contour>
      <point x="727" y="598" type="line"/>
      <point x="727" y="595" type="line"/>
      <point x="724" y="595" type="line"/>
      <point x="724" y="598" type="line"/>
    </contour>
    <contour>
      <point x="197" y="591" type="line"/>
      <point x="197" y="589" type="line"/>
      <point x="194" y="589" type="line"/>
      <point x="194" y="591" type="line" name=".hr06"/>
    </contour>
    <contour>
      <point x="240" y="591" type="line"/>
      <point x="240" y="589" type="line"/>
      <point x="237" y="589" type="line"/>
      <point x="237" y="591" type="line"/>
    </contour>
    <contour>
      <point x="635" y="591" type="line"/>
      <point x="635" y="589" type="line"/>
      <point x="632" y="589" type="line"/>
      <point x="632" y="591" type="line"/>
    </contour>
    <contour>
      <point x="678" y="591" type="line"/>
      <point x="678" y="589" type="line"/>
      <point x="675" y="589" type="line"/>
      <point x="675" y="591" type="line"/>
    </contour>
    <contour>
      <point x="218" y="586" type="curve"/>
      <point x="226" y="582"/>
      <point x="226" y="578"/>
      <point x="218" y="574" type="curve"/>
      <point x="210" y="578"/>
      <point x="210" y="582"/>
    </contour>
    <contour>
      <point x="296" y="585" type="line"/>
      <point x="296" y="582" type="line"/>
      <point x="293" y="582" type="line"/>
      <point x="293" y="585" type="line"/>
    </contour>
    <contour>
      <point x="345" y="585" type="line" name=".hr07"/>
      <point x="345" y="582" type="line"/>
      <point x="342" y="582" type="line"/>
      <point x="342" y="585" type="line"/>
    </contour>
    <contour>
      <point x="511" y="585" type="line"/>
      <point x="511" y="582" type="line"/>
      <point x="509" y="582" type="line"/>
      <point x="509" y="585" type="line"/>
    </contour>
    <contour>
      <point x="610" y="585" type="line"/>
      <point x="610" y="582" type="line"/>
      <point x="607" y="582" type="line"/>
      <point x="607" y="585" type="line"/>
    </contour>
    <contour>
      <point x="647" y="585" type="line"/>
      <point x="647" y="582" type="line"/>
      <point x="644" y="582" type="line"/>
      <point x="644" y="585" type="line"/>
    </contour>
    <contour>
      <point x="702" y="585" type="line"/>
      <point x="702" y="582" type="line"/>
      <point x="699" y="582" type="line"/>
      <point x="699" y="585" type="line"/>
    </contour>
    <contour>
      <point x="166" y="579" type="line"/>
      <point x="166" y="576" type="line"/>
      <point x="164" y="576" type="line"/>
      <point x="164" y="579" type="line"/>
    </contour>
    <contour>
      <point x="400" y="579" type="line"/>
      <point x="400" y="576" type="line"/>
      <point x="398" y="576" type="line"/>
      <point x="398" y="579" type="line"/>
    </contour>
    <contour>
      <point x="439" y="583" type="line"/>
      <point x="444" y="580" type="line"/>
      <point x="444" y="575" type="line"/>
      <point x="439" y="573" type="line"/>
      <point x="435" y="575" type="line"/>
      <point x="435" y="580" type="line"/>
    </contour>
    <contour>
      <point x="458" y="583" type="line"/>
      <point x="462" y="580" type="line" name=".hr08"/>
      <point x="462" y="575" type="line"/>
      <point x="458" y="573" type="line"/>
      <point x="453" y="575" type="line"/>
      <point x="453" y="580" type="line"/>
    </contour>
    <contour>
      <point x="481" y="579" type="line"/>
      <point x="481" y="576" type="line"/>
      <point x="478" y="576" type="line"/>
      <point x="478" y="579" type="line"/>
    </contour>
    <contour>
      <point x="659" y="579" type="line"/>
      <point x="659" y="576" type="line"/>
      <point x="656" y="576" type="line"/>
      <point x="656" y="579" type="line"/>
    </contour>
    <contour>
      <point x="253" y="573" type="line"/>
      <point x="253" y="570" type="line"/>
      <point x="250" y="570" type="line"/>
      <point x="250" y="573" type="line"/>
    </contour>
    <contour>
      <point x="339" y="573" type="line"/>
      <point x="339" y="570" type="line"/>
      <point x="336" y="570" type="line"/>
      <point x="336" y="573" type="line"/>
    </contour>
    <contour>
      <point x="562" y="577" type="line"/>
      <point x="567" y="574" type="line"/>
      <point x="567" y="569" type="line"/>
      <point x="562" y="567" type="line"/>
      <point x="558" y="569" type="line"/>
      <point x="558" y="574" type="line"/>
    </contour>
    <contour>
      <point x="579" y="573" type="line"/>
      <point x="579" y="570" type="line"/>
      <point x="576" y="570" type="line"/>
      <point x="576" y="573" type="line"/>
    </contour>
    <contour>
      <point x="668" y="573" type="curve" smooth="yes"/>
      <point x="677" y="573"/>
      <point x="677" y="558"/>
      <point x="668" y="558" type="curve" smooth="yes"/>
      <point x="659" y="558"/>
      <point x="659" y="573"/>
    </contour>
    <contour>
      <point x="216" y="567" type="line"/>
      <point x="216" y="564" type="line"/>
      <point x="213" y="564" type="line"/>
      <point x="213" y="567" type="line"/>
    </contour>
    <contour>
      <point x="419" y="561" type="line"/>
      <point x="419" y="558" type="line"/>
      <point x="416" y="558" type="line"/>
      <point x="416" y="561" type="line"/>
    </contour>
    <contour>
      <point x="428" y="561" type="curve"/>
      <point x="437" y="564" name=".hr09"/>
      <point x="439" y="562"/>
      <point x="436" y="553" type="curve"/>
      <point x="427" y="550"/>
      <point x="425" y="552"/>
    </contour>
    <contour>
      <point x="493" y="561" type="line"/>
      <point x="493" y="558" type="line"/>
      <point x="490" y="558" type="line"/>
      <point x="490" y="561" type="line"/>
    </contour>
    <contour>
      <point x="505" y="561" type="line"/>
      <point x="505" y="558" type="line"/>
      <point x="502" y="558" type="line"/>
      <point x="502" y="561" type="line"/>
    </contour>
    <contour>
      <point x="561" y="561" type="line"/>
      <point x="561" y="558" type="line"/>
      <point x="558" y="558" type="line"/>
      <point x="558" y="561" type="line"/>
    </contour>
    <contour>
      <point x="604" y="561" type="line"/>
      <point x="604" y="558" type="line"/>
      <point x="601" y="558" type="line"/>
      <point x="601" y="561" type="line"/>
    </contour>
    <contour>
      <point x="636" y="564" type="line"/>
      <point x="641" y="562" type="line"/>
      <point x="641" y="557" type="line"/>
      <point x="636" y="554" type="line"/>
      <point x="632" y="557" type="line"/>
      <point x="632" y="562" type="line"/>
    </contour>
    <contour>
      <point x="394" y="555" type="line"/>
      <point x="394" y="552" type="line"/>
      <point x="391" y="552" type="line"/>
      <point x="391" y="555" type="line"/>
    </contour>
    <contour>
      <point x="468" y="555" type="line"/>
      <point x="468" y="552" type="line"/>
      <point x="465" y="552" type="line" name=".hr10"/>
      <point x="465" y="555" type="line"/>
    </contour>
    <contour>
      <point x="622" y="555" type="line"/>
      <point x="622" y="552" type="line"/>
      <point x="619" y="552" type="line"/>
      <point x="619" y="555" type="line"/>
    </contour>
    <contour>
      <point x="660" y="554" type="line"/>
      <point x="663" y="550" type="line"/>
      <point x="660" y="546" type="line"/>
      <point x="655" y="546" type="line"/>
      <point x="653" y="550" type="line"/>
      <point x="655" y="554" type="line"/>
    </contour>
    <contour>
      <point x="191" y="548" type="line"/>
      <point x="191" y="546" type="line" name=".hr11"/>
      <point x="188" y="546" type="line"/>
      <point x="188" y="548" type="line"/>
    </contour>
    <contour>
      <point x="440" y="548" type="curve"/>
      <point x="449" y="548"/>
      <point x="447" y="533" name=".hr12"/>
      <point x="438" y="533" type="curve"/>
      <point x="429" y="534"/>
      <point x="431" y="549"/>
    </contour>
    <contour>
      <point x="136" y="542" type="line"/>
      <point x="136" y="539" type="line"/>
      <point x="133" y="539" type="line"/>
      <point x="133" y="542" type="line"/>
    </contour>
    <contour>
      <point x="715" y="542" type="line"/>
      <point x="715" y="539" type="line"/>
      <point x="712" y="539" type="line"/>
      <point x="712" y="542" type="line" name=".hr13"/>
    </contour>
    <contour>
      <point x="154" y="536" type="line"/>
      <point x="154" y="533" type="line"/>
      <point x="151" y="533" type="line"/>
      <point x="151" y="536" type="line"/>
    </contour>
    <contour>
      <point x="376" y="536" type="line"/>
      <point x="376" y="533" type="line"/>
      <point x="373" y="533" type="line"/>
      <point x="373" y="536" type="line" name=".hr14"/>
    </contour>
    <contour>
      <point x="455" y="536" type="curve" smooth="yes"/>
      <point x="462" y="541"/>
      <point x="470" y="528"/>
      <point x="463" y="523" type="curve" smooth="yes"/>
      <point x="455" y="518"/>
      <point x="448" y="531"/>
    </contour>
    <contour>
      <point x="653" y="536" type="line"/>
      <point x="653" y="533" type="line"/>
      <point x="650" y="533" type="line"/>
      <point x="650" y="536" type="line"/>
    </contour>
    <contour>
      <point x="673" y="536" type="line"/>
      <point x="675" y="532" type="line" name=".hr15"/>
      <point x="673" y="527" type="line"/>
      <point x="668" y="527" type="line"/>
      <point x="665" y="532" type="line"/>
      <point x="668" y="536" type="line" name=".hr16"/>
    </contour>
    <contour>
      <point x="422" y="529" type="curve"/>
      <point x="431" y="532"/>
      <point x="433" y="529"/>
      <point x="430" y="520" type="curve" name=".hr17"/>
      <point x="421" y="517"/>
      <point x="419" y="520"/>
    </contour>
    <contour>
      <point x="721" y="530" type="line" name=".hr18"/>
      <point x="721" y="527" type="line"/>
      <point x="718" y="527" type="line" name=".hr19"/>
      <point x="718" y="530" type="line"/>
    </contour>
    <contour>
      <point x="445" y="527" type="line"/>
      <point x="450" y="525" type="line"/>
      <point x="450" y="520" type="line"/>
      <point x="445" y="517" type="line"/>
      <point x="441" y="520" type="line"/>
      <point x="441" y="525" type="line" name=".hr20"/>
    </contour>
    <contour>
      <point x="382" y="518" type="line"/>
      <point x="382" y="515" type="line"/>
      <point x="379" y="515" type="line"/>
      <point x="379" y="518" type="line" name=".hr22"/>
    </contour>
    <contour>
      <point x="713" y="518" type="curve"/>
      <point x="721" y="521" name=".hr21"/>
      <point x="724" y="518"/>
      <point x="722" y="509" type="curve"/>
      <point x="713" y="507"/>
      <point x="710" y="510"/>
    </contour>
    <contour>
      <point x="427" y="515" type="line"/>
      <point x="431" y="512" type="line"/>
      <point x="431" y="507" type="line"/>
      <point x="427" y="505" type="line"/>
      <point x="422" y="507" type="line"/>
      <point x="422" y="512" type="line"/>
    </contour>
    <contour>
      <point x="446" y="512" type="curve"/>
      <point x="454" y="508"/>
      <point x="454" y="504"/>
      <point x="446" y="500" type="curve"/>
      <point x="438" y="504"/>
      <point x="438" y="508" name=".hr23"/>
    </contour>
    <contour>
      <point x="456" y="493" type="line"/>
      <point x="456" y="490" type="line"/>
      <point x="453" y="490" type="line"/>
      <point x="453" y="493" type="line"/>
    </contour>
    <contour>
      <point x="136" y="487" type="line"/>
      <point x="136" y="484" type="line"/>
      <point x="133" y="484" type="line"/>
      <point x="133" y="487" type="line"/>
    </contour>
    <contour>
      <point x="678" y="481" type="line"/>
      <point x="678" y="478" type="line"/>
      <point x="675" y="478" type="line"/>
      <point x="675" y="481" type="line"/>
    </contour>
    <contour>
      <point x="174" y="478" type="line"/>
      <point x="179" y="476" type="line"/>
      <point x="179" y="470" type="line"/>
      <point x="174" y="468" type="line"/>
      <point x="170" y="470" type="line" name=".hr24"/>
      <point x="170" y="476" type="line"/>
    </contour>
    <contour>
      <point x="431" y="474" type="line"/>
      <point x="431" y="472" type="line"/>
      <point x="428" y="472" type="line"/>
      <point x="428" y="474" type="line"/>
    </contour>
    <contour>
      <point x="444" y="474" type="line"/>
      <point x="444" y="472" type="line"/>
      <point x="441" y="472" type="line"/>
      <point x="441" y="474" type="line" name=".hr25"/>
    </contour>
    <contour>
      <point x="154" y="468" type="line" name=".hr26"/>
      <point x="154" y="465" type="line" name=".hr27"/>
      <point x="151" y="465" type="line"/>
      <point x="151" y="468" type="line" name=".hr28"/>
    </contour>
    <contour>
      <point x="129" y="462" type="line"/>
      <point x="129" y="459" type="line"/>
      <point x="127" y="459" type="line"/>
      <point x="127" y="462" type="line"/>
    </contour>
    <contour>
      <point x="425" y="462" type="line"/>
      <point x="425" y="459" type="line"/>
      <point x="422" y="459" type="line"/>
      <point x="422" y="462" type="line" name=".hr29"/>
    </contour>
    <contour>
      <point x="149" y="450" type="line"/>
      <point x="151" y="445" type="line"/>
      <point x="149" y="441" type="line"/>
      <point x="144" y="441" type="line" name=".hr30"/>
      <point x="141" y="445" type="line"/>
      <point x="144" y="450" type="line"/>
    </contour>
    <contour>
      <point x="166" y="437" type="line"/>
      <point x="166" y="435" type="line"/>
      <point x="164" y="435" type="line"/>
      <point x="164" y="437" type="line"/>
    </contour>
    <contour>
      <point x="154" y="419" type="line"/>
      <point x="154" y="416" type="line"/>
      <point x="151" y="416" type="line"/>
      <point x="151" y="419" type="line"/>
    </contour>
    <contour>
      <point x="440" y="420" type="curve"/>
      <point x="448" y="416"/>
      <point x="448" y="412"/>
      <point x="440" y="407" type="curve"/>
      <point x="432" y="412"/>
      <point x="432" y="416"/>
    </contour>
    <contour>
      <point x="678" y="419" type="line"/>
      <point x="678" y="416" type="line"/>
      <point x="675" y="416" type="line"/>
      <point x="675" y="419" type="line"/>
    </contour>
    <contour>
      <point x="123" y="407" type="line"/>
      <point x="123" y="404" type="line"/>
      <point x="120" y="404" type="line"/>
      <point x="120" y="407" type="line"/>
    </contour>
    <contour>
      <point x="419" y="407" type="line"/>
      <point x="419" y="404" type="line"/>
      <point x="416" y="404" type="line"/>
      <point x="416" y="407" type="line"/>
    </contour>
    <contour>
      <point x="733" y="394" type="line"/>
      <point x="733" y="392" type="line"/>
      <point x="730" y="392" type="line"/>
      <point x="730" y="394" type="line"/>
    </contour>
    <contour>
      <point x="136" y="345" type="line"/>
      <point x="136" y="342" type="line"/>
      <point x="133" y="342" type="line"/>
      <point x="133" y="345" type="line"/>
    </contour>
    <contour>
      <point x="148" y="259" type="line"/>
      <point x="148" y="256" type="line"/>
      <point x="145" y="256" type="line"/>
      <point x="145" y="259" type="line"/>
    </contour>
    <contour>
      <point x="727" y="259" type="line"/>
      <point x="727" y="256" type="line"/>
      <point x="724" y="256" type="line"/>
      <point x="724" y="259" type="line"/>
    </contour>
    <contour>
      <point x="163" y="241" type="curve"/>
      <point x="171" y="237"/>
      <point x="171" y="233"/>
      <point x="163" y="229" type="curve"/>
      <point x="155" y="233"/>
      <point x="155" y="237"/>
    </contour>
    <contour>
      <point x="684" y="191" type="line"/>
      <point x="684" y="188" type="line"/>
      <point x="681" y="188" type="line"/>
      <point x="681" y="191" type="line"/>
    </contour>
    <contour>
      <point x="702" y="191" type="line"/>
      <point x="702" y="188" type="line"/>
      <point x="699" y="188" type="line"/>
      <point x="699" y="191" type="line"/>
    </contour>
    <contour>
      <point x="702" y="173" type="line"/>
      <point x="702" y="170" type="line"/>
      <point x="699" y="170" type="line"/>
      <point x="699" y="173" type="line"/>
    </contour>
    <contour>
      <point x="400" y="154" type="line"/>
      <point x="400" y="151" type="line"/>
      <point x="398" y="151" type="line"/>
      <point x="398" y="154" type="line"/>
    </contour>
    <contour>
      <point x="431" y="154" type="line"/>
      <point x="431" y="151" type="line"/>
      <point x="428" y="151" type="line"/>
      <point x="428" y="154" type="line" name=".hr31"/>
    </contour>
  </outline>
</glyph>
<glyph name="Q" format="2">
  <advance width="565"/>
  <unicode hex="0051"/>
  <outline>
    <contour>
      <point x="25" y="706" type="curve"/>
      <point x="25" y="473"/>
      <point x="23" y="243"/>
      <point x="26" y="10" type="curve"/>
      <point x="77" y="10"/>
      <point x="129" y="13"/>
      <point x="180" y="10" type="curve"/>
      <point x="203" y="-6"/>
      <point x="214" y="-35"/>
      <point x="230" y="-58" type="curve"/>
      <point x="325" y="-57"/>
      <point x="418" y="-58"/>
      <point x="513" y="-57" type="curve"/>
      <point x="501" y="-34"/>
      <point x="490" y="-10"/>
      <point x="475" y="11" type="curve"/>
      <point x="534" y="11" type="line"/>
      <point x="538" y="38"/>
      <point x="536" y="63"/>
      <point x="537" y="90" type="curve"/>
      <point x="534" y="297"/>
      <point x="537" y="499"/>
      <point x="536" y="706" type="curve"/>
      <point x="365" y="707"/>
      <point x="195" y="707"/>
    </contour>
    <contour>
      <point x="248" y="607" type="curve"/>
      <point x="257" y="610"/>
      <point x="259" y="607"/>
      <point x="256" y="598" type="curve"/>
      <point x="247" y="595"/>
      <point x="245" y="598"/>
    </contour>
    <contour>
      <point x="128" y="600" type="line"/>
      <point x="128" y="597" type="line"/>
      <point x="125" y="597" type="line"/>
      <point x="125" y="600" type="line"/>
    </contour>
    <contour>
      <point x="220" y="594" type="line"/>
      <point x="220" y="591" type="line"/>
      <point x="218" y="591" type="line"/>
      <point x="218" y="594" type="line"/>
    </contour>
    <contour>
      <point x="140" y="588" type="line" name=".hr01"/>
      <point x="140" y="585" type="line"/>
      <point x="137" y="585" type="line"/>
      <point x="137" y="588" type="line"/>
    </contour>
    <contour>
      <point x="208" y="588" type="line"/>
      <point x="208" y="585" type="line"/>
      <point x="205" y="585" type="line" name=".hr02"/>
      <point x="205" y="588" type="line"/>
    </contour>
    <contour>
      <point x="246" y="588" type="line"/>
      <point x="249" y="583" type="line"/>
      <point x="246" y="579" type="line"/>
      <point x="241" y="579" type="line"/>
      <point x="239" y="583" type="line" name=".hr03"/>
      <point x="241" y="588" type="line"/>
    </contour>
    <contour>
      <point x="294" y="588" type="line"/>
      <point x="294" y="585" type="line"/>
      <point x="291" y="585" type="line" name=".hr04"/>
      <point x="291" y="588" type="line"/>
    </contour>
    <contour>
      <point x="319" y="582" type="line"/>
      <point x="319" y="579" type="line"/>
      <point x="316" y="579" type="line"/>
      <point x="316" y="582" type="line" name=".hr05"/>
    </contour>
    <contour>
      <point x="288" y="575" type="line"/>
      <point x="288" y="573" type="line"/>
      <point x="285" y="573" type="line" name=".hr06"/>
      <point x="285" y="575" type="line"/>
    </contour>
    <contour>
      <point x="233" y="569" type="line"/>
      <point x="233" y="566" type="line"/>
      <point x="230" y="566" type="line" name=".hr07"/>
      <point x="230" y="569" type="line"/>
    </contour>
    <contour>
      <point x="165" y="563" type="line"/>
      <point x="165" y="560" type="line"/>
      <point x="162" y="560" type="line" name=".hr08"/>
      <point x="162" y="563" type="line"/>
    </contour>
    <contour>
      <point x="171" y="551" type="line"/>
      <point x="171" y="548" type="line"/>
      <point x="168" y="548" type="line" name=".hr09"/>
      <point x="168" y="551" type="line"/>
    </contour>
    <contour>
      <point x="430" y="551" type="line"/>
      <point x="430" y="548" type="line"/>
      <point x="427" y="548" type="line"/>
      <point x="427" y="551" type="line"/>
    </contour>
    <contour>
      <point x="411" y="545" type="line"/>
      <point x="411" y="542" type="line"/>
      <point x="409" y="542" type="line"/>
      <point x="409" y="545" type="line"/>
    </contour>
    <contour>
      <point x="183" y="538" type="line"/>
      <point x="183" y="536" type="line"/>
      <point x="181" y="536" type="line"/>
      <point x="181" y="538" type="line"/>
    </contour>
    <contour>
      <point x="196" y="538" type="line"/>
      <point x="196" y="536" type="line"/>
      <point x="193" y="536" type="line"/>
      <point x="193" y="538" type="line"/>
    </contour>
    <contour>
      <point x="171" y="514" type="line"/>
      <point x="171" y="511" type="line"/>
      <point x="168" y="511" type="line"/>
      <point x="168" y="514" type="line"/>
    </contour>
    <contour>
      <point x="436" y="508" type="line"/>
      <point x="436" y="505" type="line"/>
      <point x="433" y="505" type="line"/>
      <point x="433" y="508" type="line"/>
    </contour>
    <contour>
      <point x="128" y="502" type="line"/>
      <point x="128" y="499" type="line"/>
      <point x="125" y="499" type="line"/>
      <point x="125" y="502" type="line" name=".hr10"/>
    </contour>
    <contour>
      <point x="424" y="495" type="line"/>
      <point x="424" y="493" type="line"/>
      <point x="421" y="493" type="line" name=".hr11"/>
      <point x="421" y="495" type="line"/>
    </contour>
    <contour>
      <point x="165" y="489" type="line"/>
      <point x="165" y="486" type="line"/>
      <point x="162" y="486" type="line"/>
      <point x="162" y="489" type="line"/>
    </contour>
    <contour>
      <point x="116" y="483" type="line"/>
      <point x="116" y="480" type="line"/>
      <point x="113" y="480" type="line"/>
      <point x="113" y="483" type="line"/>
    </contour>
    <contour>
      <point x="430" y="483" type="line"/>
      <point x="430" y="480" type="line"/>
      <point x="427" y="480" type="line"/>
      <point x="427" y="483" type="line"/>
    </contour>
    <contour>
      <point x="302" y="472" type="line"/>
      <point x="303" y="396"/>
      <point x="303" y="320"/>
      <point x="302" y="245" type="curve"/>
      <point x="291" y="245"/>
      <point x="270" y="244"/>
      <point x="259" y="244" type="curve"/>
      <point x="259" y="472" type="line"/>
    </contour>
    <contour>
      <point x="411" y="471" type="line"/>
      <point x="411" y="468" type="line"/>
      <point x="409" y="468" type="line"/>
      <point x="409" y="471" type="line"/>
    </contour>
    <contour>
      <point x="424" y="471" type="line"/>
      <point x="424" y="468" type="line"/>
      <point x="421" y="468" type="line"/>
      <point x="421" y="471" type="line"/>
    </contour>
    <contour>
      <point x="424" y="409" type="line"/>
      <point x="424" y="406" type="line"/>
      <point x="421" y="406" type="line"/>
      <point x="421" y="409" type="line"/>
    </contour>
    <contour>
      <point x="411" y="397" type="line"/>
      <point x="411" y="394" type="line"/>
      <point x="409" y="394" type="line"/>
      <point x="409" y="397" type="line"/>
    </contour>
    <contour>
      <point x="418" y="348" type="line"/>
      <point x="418" y="345" type="line"/>
      <point x="415" y="345" type="line"/>
      <point x="415" y="348" type="line"/>
    </contour>
    <contour>
      <point x="165" y="311" type="line"/>
      <point x="165" y="308" type="line"/>
      <point x="162" y="308" type="line"/>
      <point x="162" y="311" type="line"/>
    </contour>
    <contour>
      <point x="399" y="280" type="line"/>
      <point x="399" y="277" type="line"/>
      <point x="396" y="277" type="line"/>
      <point x="396" y="280" type="line"/>
    </contour>
    <contour>
      <point x="146" y="274" type="line"/>
      <point x="146" y="271" type="line"/>
      <point x="144" y="271" type="line"/>
      <point x="144" y="274" type="line"/>
    </contour>
    <contour>
      <point x="411" y="249" type="line"/>
      <point x="411" y="246" type="line"/>
      <point x="409" y="246" type="line"/>
      <point x="409" y="249" type="line" name=".hr12"/>
    </contour>
    <contour>
      <point x="436" y="249" type="line"/>
      <point x="436" y="246" type="line"/>
      <point x="433" y="246" type="line"/>
      <point x="433" y="249" type="line"/>
    </contour>
    <contour>
      <point x="434" y="231" type="curve"/>
      <point x="443" y="234"/>
      <point x="446" y="231"/>
      <point x="443" y="222" type="curve"/>
      <point x="434" y="220"/>
      <point x="431" y="223"/>
    </contour>
    <contour>
      <point x="177" y="224" type="line"/>
      <point x="177" y="221" type="line"/>
      <point x="174" y="221" type="line"/>
      <point x="174" y="224" type="line"/>
    </contour>
    <contour>
      <point x="405" y="200" type="line"/>
      <point x="405" y="197" type="line"/>
      <point x="402" y="197" type="line"/>
      <point x="402" y="200" type="line"/>
    </contour>
    <contour>
      <point x="159" y="187" type="line"/>
      <point x="159" y="184" type="line"/>
      <point x="156" y="184" type="line"/>
      <point x="156" y="187" type="line"/>
    </contour>
    <contour>
      <point x="424" y="187" type="line"/>
      <point x="424" y="184" type="line"/>
      <point x="421" y="184" type="line"/>
      <point x="421" y="187" type="line"/>
    </contour>
    <contour>
      <point x="436" y="181" type="line"/>
      <point x="436" y="178" type="line"/>
      <point x="433" y="178" type="line"/>
      <point x="433" y="181" type="line"/>
    </contour>
    <contour>
      <point x="154" y="179" type="line" name=".hr13"/>
      <point x="159" y="176" type="line"/>
      <point x="159" y="171" type="line"/>
      <point x="154" y="169" type="line"/>
      <point x="150" y="171" type="line" name=".hr14"/>
      <point x="150" y="176" type="line"/>
    </contour>
    <contour>
      <point x="186" y="175" type="curve" smooth="yes"/>
      <point x="195" y="175"/>
      <point x="195" y="160"/>
      <point x="186" y="160" type="curve" smooth="yes"/>
      <point x="177" y="160"/>
      <point x="177" y="175"/>
    </contour>
    <contour>
      <point x="405" y="175" type="line"/>
      <point x="405" y="172" type="line"/>
      <point x="402" y="172" type="line"/>
      <point x="402" y="175" type="line"/>
    </contour>
    <contour>
      <point x="368" y="163" type="curve" smooth="yes"/>
      <point x="373" y="171"/>
      <point x="386" y="163"/>
      <point x="381" y="155" type="curve" smooth="yes"/>
      <point x="376" y="148" name=".hr15"/>
      <point x="363" y="156"/>
    </contour>
    <contour>
      <point x="442" y="163" type="line"/>
      <point x="442" y="160" type="line"/>
      <point x="439" y="160" type="line"/>
      <point x="439" y="163" type="line"/>
    </contour>
    <contour>
      <point x="259" y="160" type="line"/>
      <point x="263" y="158" type="line"/>
      <point x="263" y="153" type="line" name=".hr16"/>
      <point x="259" y="150" type="line"/>
      <point x="255" y="153" type="line"/>
      <point x="255" y="158" type="line"/>
    </contour>
    <contour>
      <point x="272" y="157" type="curve"/>
      <point x="281" y="160"/>
      <point x="284" y="157"/>
      <point x="281" y="148" type="curve"/>
      <point x="273" y="146"/>
      <point x="270" y="149" name=".hr17"/>
    </contour>
    <contour>
      <point x="344" y="157" type="line" name=".hr18"/>
      <point x="344" y="154" type="line" name=".hr19"/>
      <point x="341" y="154" type="line"/>
      <point x="341" y="157" type="line"/>
    </contour>
    <contour>
      <point x="159" y="150" type="line"/>
      <point x="159" y="148" type="line"/>
      <point x="156" y="148" type="line"/>
      <point x="156" y="150" type="line"/>
    </contour>
    <contour>
      <point x="191" y="154" type="line"/>
      <point x="196" y="151" type="line"/>
      <point x="196" y="146" type="line"/>
      <point x="191" y="144" type="line"/>
      <point x="187" y="146" type="line"/>
      <point x="187" y="151" type="line"/>
    </contour>
    <contour>
      <point x="146" y="144" type="line"/>
      <point x="146" y="141" type="line" name=".hr20"/>
      <point x="144" y="141" type="line"/>
      <point x="144" y="144" type="line" name=".hr21"/>
    </contour>
    <contour>
      <point x="356" y="144" type="line"/>
      <point x="356" y="141" type="line" name=".hr22"/>
      <point x="353" y="141" type="line" name=".hr23"/>
      <point x="353" y="144" type="line"/>
    </contour>
    <contour>
      <point x="395" y="146" type="line"/>
      <point x="394" y="142"/>
      <point x="393" y="134"/>
      <point x="390" y="130" type="curve"/>
      <point x="362" y="128" type="line"/>
    </contour>
    <contour>
      <point x="442" y="144" type="line"/>
      <point x="442" y="141" type="line"/>
      <point x="439" y="141" type="line"/>
      <point x="439" y="144" type="line"/>
    </contour>
    <contour>
      <point x="204" y="142" type="line"/>
      <point x="208" y="139" type="line"/>
      <point x="208" y="134" type="line"/>
      <point x="204" y="132" type="line"/>
      <point x="199" y="134" type="line"/>
      <point x="199" y="139" type="line"/>
    </contour>
    <contour>
      <point x="222" y="138" type="line"/>
      <point x="224" y="134" type="line"/>
      <point x="222" y="129" type="line"/>
      <point x="216" y="129" type="line" name=".hr24"/>
      <point x="214" y="134" type="line"/>
      <point x="216" y="138" type="line"/>
    </contour>
    <contour>
      <point x="321" y="142" type="line"/>
      <point x="325" y="139" type="line"/>
      <point x="325" y="134" type="line"/>
      <point x="321" y="132" type="line"/>
      <point x="316" y="134" type="line"/>
      <point x="316" y="139" type="line"/>
    </contour>
    <contour>
      <point x="430" y="138" type="line"/>
      <point x="430" y="135" type="line"/>
      <point x="427" y="135" type="line"/>
      <point x="427" y="138" type="line"/>
    </contour>
    <contour>
      <point x="282" y="132" type="line"/>
      <point x="282" y="129" type="line"/>
      <point x="279" y="129" type="line"/>
      <point x="279" y="132" type="line"/>
    </contour>
    <contour>
      <point x="399" y="126" type="line"/>
      <point x="399" y="123" type="line"/>
      <point x="396" y="123" type="line"/>
      <point x="396" y="126" type="line"/>
    </contour>
    <contour>
      <point x="204" y="121" type="curve"/>
      <point x="212" y="116"/>
      <point x="212" y="112"/>
      <point x="204" y="108" type="curve" name=".hr25"/>
      <point x="196" y="112"/>
      <point x="196" y="116"/>
    </contour>
    <contour>
      <point x="153" y="113" type="line" name=".hr26"/>
      <point x="153" y="111" type="line"/>
      <point x="150" y="111" type="line"/>
      <point x="150" y="113" type="line"/>
    </contour>
    <contour>
      <point x="298" y="114" type="curve"/>
      <point x="307" y="117"/>
      <point x="310" y="114"/>
      <point x="307" y="105" type="curve" name=".hr27"/>
      <point x="299" y="103"/>
      <point x="296" y="106"/>
    </contour>
    <contour>
      <point x="374" y="113" type="line"/>
      <point x="374" y="111" type="line"/>
      <point x="372" y="111" type="line"/>
      <point x="372" y="113" type="line" name=".hr28"/>
    </contour>
    <contour>
      <point x="289" y="102" type="line" name=".hr29"/>
      <point x="286" y="85" type="line"/>
      <point x="262" y="88" type="line"/>
      <point x="282" y="99" type="line"/>
      <point x="282" y="102"/>
      <point x="281" y="109" name=".hr30"/>
      <point x="281" y="112" type="curve"/>
    </contour>
    <contour>
      <point x="325" y="107" type="line"/>
      <point x="325" y="104" type="line"/>
      <point x="322" y="104" type="line"/>
      <point x="322" y="107" type="line"/>
    </contour>
    <contour>
      <point x="220" y="101" type="line"/>
      <point x="220" y="98" type="line"/>
      <point x="218" y="98" type="line"/>
      <point x="218" y="101" type="line"/>
    </contour>
    <contour>
      <point x="334" y="102" type="curve"/>
      <point x="343" y="105"/>
      <point x="346" y="102"/>
      <point x="343" y="93" type="curve"/>
      <point x="334" y="90"/>
      <point x="331" y="93"/>
    </contour>
    <contour>
      <point x="313" y="95" type="line"/>
      <point x="313" y="92" type="line"/>
      <point x="310" y="92" type="line"/>
      <point x="310" y="95" type="line" name=".hr31"/>
    </contour>
    <contour>
      <point x="350" y="89" type="line"/>
      <point x="350" y="86" type="line"/>
      <point x="347" y="86" type="line"/>
      <point x="347" y="89" type="line"/>
    </contour>
    <contour>
      <point x="290" y="80" type="line"/>
      <point x="294" y="78" type="line"/>
      <point x="294" y="72" type="line"/>
      <point x="290" y="70" type="line" name=".hr32"/>
      <point x="285" y="72" type="line"/>
      <point x="285" y="78" type="line"/>
    </contour>
    <contour>
      <point x="395" y="77" type="curve"/>
      <point x="403" y="73"/>
      <point x="403" y="69"/>
      <point x="395" y="65" type="curve"/>
      <point x="387" y="69"/>
      <point x="387" y="73"/>
    </contour>
    <contour>
      <point x="374" y="46" type="line"/>
      <point x="374" y="43" type="line"/>
      <point x="372" y="43" type="line"/>
      <point x="372" y="46" type="line"/>
    </contour>
  </outline>
</glyph>
<glyph name="S" format="2">
  <advance width="565"/>
  <unicode hex="0053"/>
  <outline>
    <contour>
      <point x="31" y="699" type="curve"/>
      <point x="23" y="666"/>
      <point x="31" y="631"/>
      <point x="28" y="596" type="curve"/>
      <point x="31" y="493"/>
      <point x="26" y="392"/>
      <point x="29" y="291" type="curve" name=".hr01"/>
      <point x="37" y="282" type="line"/>
      <point x="129" y="279"/>
      <point x="220" y="285"/>
      <point x="312" y="282" type="curve"/>
      <point x="312" y="239" type="line"/>
      <point x="217" y="236"/>
      <point x="124" y="244"/>
      <point x="31" y="237" type="curve"/>
      <point x="30" y="233"/>
      <point x="29" y="229"/>
      <point x="29" y="225" type="curve"/>
      <point x="26" y="152"/>
      <point x="27" y="79"/>
      <point x="30" y="6" type="curve"/>
      <point x="129" y="2"/>
      <point x="225" y="6"/>
      <point x="324" y="5" type="curve" name=".hr02"/>
      <point x="397" y="6" name=".hr03"/>
      <point x="465" y="0"/>
      <point x="538" y="7" type="curve"/>
      <point x="546" y="40"/>
      <point x="538" y="75"/>
      <point x="541" y="110" type="curve"/>
      <point x="538" y="213"/>
      <point x="544" y="312"/>
      <point x="541" y="415" type="curve"/>
      <point x="532" y="424" type="line"/>
      <point x="440" y="427"/>
      <point x="354" y="421"/>
      <point x="262" y="424" type="curve"/>
      <point x="262" y="435"/>
      <point x="263" y="456"/>
      <point x="263" y="467" type="curve"/>
      <point x="356" y="470"/>
      <point x="445" y="462"/>
      <point x="538" y="469" type="curve"/>
      <point x="541" y="481" type="line"/>
      <point x="544" y="554"/>
      <point x="542" y="627"/>
      <point x="539" y="699" type="curve"/>
      <point x="440" y="704"/>
      <point x="349" y="698"/>
      <point x="250" y="701" type="curve"/>
      <point x="177" y="700"/>
      <point x="104" y="706"/>
    </contour>
    <contour>
      <point x="249" y="582" type="line"/>
      <point x="249" y="579" type="line" name=".hr04"/>
      <point x="246" y="579" type="line"/>
      <point x="246" y="582" type="line"/>
    </contour>
    <contour>
      <point x="311" y="582" type="line"/>
      <point x="314" y="578" type="line"/>
      <point x="311" y="573" type="line"/>
      <point x="306" y="573" type="line"/>
      <point x="304" y="578" type="line"/>
      <point x="306" y="582" type="line"/>
    </contour>
    <contour>
      <point x="224" y="576" type="line"/>
      <point x="224" y="573" type="line" name=".hr05"/>
      <point x="221" y="573" type="line"/>
      <point x="221" y="576" type="line"/>
    </contour>
    <contour>
      <point x="156" y="545" type="line"/>
      <point x="156" y="542" type="line" name=".hr06"/>
      <point x="153" y="542" type="line"/>
      <point x="153" y="545" type="line"/>
    </contour>
    <contour>
      <point x="133" y="539" type="line"/>
      <point x="135" y="535" type="line" name=".hr07"/>
      <point x="133" y="530" type="line"/>
      <point x="128" y="530" type="line"/>
      <point x="125" y="535" type="line"/>
      <point x="128" y="539" type="line"/>
    </contour>
    <contour>
      <point x="168" y="539" type="line"/>
      <point x="168" y="536" type="line"/>
      <point x="166" y="536" type="line"/>
      <point x="166" y="539" type="line"/>
    </contour>
    <contour>
      <point x="146" y="521" type="curve"/>
      <point x="162" y="516"/>
      <point x="136" y="499" name=".hr08"/>
      <point x="136" y="515" type="curve"/>
      <point x="138" y="519" type="line"/>
      <point x="141" y="519"/>
      <point x="143" y="521"/>
    </contour>
    <contour>
      <point x="162" y="465" type="line"/>
      <point x="162" y="462" type="line"/>
      <point x="159" y="462" type="line"/>
      <point x="159" y="465" type="line"/>
    </contour>
    <contour>
      <point x="409" y="213" type="line"/>
      <point x="409" y="210" type="line"/>
      <point x="406" y="210" type="line"/>
      <point x="406" y="213" type="line"/>
    </contour>
    <contour>
      <point x="427" y="200" type="line"/>
      <point x="427" y="197" type="line"/>
      <point x="424" y="197" type="line"/>
      <point x="424" y="200" type="line"/>
    </contour>
    <contour>
      <point x="427" y="188" type="line"/>
      <point x="427" y="185" type="line"/>
      <point x="424" y="185" type="line"/>
      <point x="424" y="188" type="line"/>
    </contour>
    <contour>
      <point x="392" y="180" type="line"/>
      <point x="400" y="183"/>
      <point x="415" y="182"/>
      <point x="418" y="173" type="curve"/>
      <point x="409" y="168"/>
      <point x="395" y="167"/>
      <point x="388" y="176" type="curve"/>
    </contour>
    <contour>
      <point x="333" y="152" type="curve"/>
      <point x="341" y="155"/>
      <point x="344" y="152"/>
      <point x="342" y="143" type="curve"/>
      <point x="333" y="140"/>
      <point x="330" y="143"/>
    </contour>
    <contour>
      <point x="356" y="152" type="curve"/>
      <point x="364" y="148"/>
      <point x="364" y="144"/>
      <point x="356" y="139" type="curve"/>
      <point x="348" y="144"/>
      <point x="348" y="148"/>
    </contour>
    <contour>
      <point x="378" y="151" type="line"/>
      <point x="378" y="148" type="line"/>
      <point x="375" y="148" type="line"/>
      <point x="375" y="151" type="line"/>
    </contour>
    <contour>
      <point x="409" y="151" type="line"/>
      <point x="409" y="148" type="line"/>
      <point x="406" y="148" type="line"/>
      <point x="406" y="151" type="line"/>
    </contour>
    <contour>
      <point x="425" y="146" type="curve"/>
      <point x="434" y="148"/>
      <point x="437" y="145"/>
      <point x="434" y="137" type="curve"/>
      <point x="425" y="134"/>
      <point x="422" y="137"/>
    </contour>
    <contour>
      <point x="273" y="126" type="line"/>
      <point x="273" y="124" type="line"/>
      <point x="270" y="124" type="line"/>
      <point x="270" y="126" type="line"/>
    </contour>
    <contour>
      <point x="310" y="114" type="line"/>
      <point x="310" y="111" type="line"/>
      <point x="307" y="111" type="line"/>
      <point x="307" y="114" type="line" name=".hr09"/>
    </contour>
    <contour>
      <point x="273" y="102" type="line"/>
      <point x="273" y="99" type="line"/>
      <point x="270" y="99" type="line"/>
      <point x="270" y="102" type="line"/>
    </contour>
    <contour>
      <point x="415" y="96" type="line"/>
      <point x="415" y="93" type="line"/>
      <point x="412" y="93" type="line"/>
      <point x="412" y="96" type="line"/>
    </contour>
  </outline>
</glyph>
